mtllib cmn_obj_springpole_SD.mtl

v 1.125732 -0.649902 0.234863
v 1.125732 -0.649902 -7.387451
v 1.125732 0.649902 0.234863
v 0.000000 -1.300049 -7.387451
v 0.000000 -1.300049 0.234863
v -1.125732 -0.649902 -7.387451
v -1.125732 -0.649902 0.234863
v -1.125732 0.649902 -7.387451
v -1.125732 0.649902 0.234863
v 0.000000 1.300049 -7.387451
v 0.000000 1.300049 0.234863
v 1.125732 0.649902 -7.387451
v 0.000000 1.300049 -7.387451
v -1.125732 -0.649902 -7.387451
v -1.125732 0.649902 -7.387451
v 0.000000 -1.300049 -7.387451
v 1.125732 0.649902 -7.387451
v 1.125732 -0.649902 -7.387451

vt 1.991089 0.735535
vt 1.525757 0.735535
vt 1.991089 0.862793
vt 1.525757 0.608643
vt 1.991089 0.608643
vt 1.525757 0.736328
vt 1.991089 0.736328
vt 1.525757 0.863647
vt 1.991089 0.863647
vt 1.525757 0.990112
vt 1.991089 0.990112
vt 1.525757 0.862793
vt 0.322266 0.984985
vt 0.481140 0.709778
vt 0.481140 0.893250
vt 0.322266 0.618042
vt 0.163391 0.893250
vt 0.163391 0.709778

vn 0.864348 -0.502894 0.000000
vn 0.864348 -0.502894 0.000000
vn 0.864348 0.502894 0.000000
vn 0.000000 -1.000000 0.000000
vn 0.000000 -1.000000 0.000000
vn -0.864348 -0.502894 0.000000
vn -0.864348 -0.502894 0.000000
vn -0.864348 0.502894 0.000000
vn -0.864348 0.502894 0.000000
vn 0.000000 1.000000 0.000000
vn 0.000000 1.000000 0.000000
vn 0.864348 0.502894 0.000000
vn 0.000000 0.000000 -1.000000
vn 0.000000 0.000000 -1.000000
vn 0.000000 0.000000 -1.000000
vn 0.000000 0.000000 -1.000000
vn 0.000000 0.000000 -1.000000
vn 0.000000 0.000000 -1.000000

g polygon0
s 1
usemtl mat1
f 1/1/1 2/2/2 3/3/3
f 1/1/1 4/4/4 2/2/2
f 5/5/5 4/4/4 1/1/1
f 5/5/5 6/6/6 4/4/4
f 7/7/7 6/6/6 5/5/5
f 7/7/7 8/8/8 6/6/6
f 9/9/9 8/8/8 7/7/7
f 9/9/9 10/10/10 8/8/8
f 11/11/11 10/10/10 9/9/9
f 11/11/11 12/12/12 10/10/10
f 3/3/3 12/12/12 11/11/11
f 3/3/3 2/2/2 12/12/12
f 13/13/13 14/14/14 15/15/15
f 13/13/13 16/16/16 14/14/14
f 17/17/17 16/16/16 13/13/13
f 17/17/17 18/18/18 16/16/16

v 0.047350 0.827922 -26.282421
v -0.804672 0.007579 -26.282385
v -0.923359 0.978173 -25.681931
v 0.047379 0.007468 -26.502356
v 0.899430 0.007639 -26.282385
v 0.047407 -0.812948 -26.282593
v 1.018115 -0.962921 -25.681910
v 0.047428 -1.413395 -25.681868
v 0.047435 -1.633330 -24.861414
v -1.073433 -1.113350 -24.861504
v 0.047427 -1.413568 -24.040998
v -0.923292 -0.963162 -24.041042
v 0.047405 -0.812842 -23.440308
v -0.804675 0.007441 -23.440344
v 0.047376 0.007611 -23.220617
v 0.047348 0.828027 -23.440378
v 0.899427 0.007500 -23.440342
v 1.018046 0.978068 -24.041059
v 1.468519 0.007625 -24.040928
v 1.168188 1.128429 -24.861467
v 1.688247 0.007597 -24.861485
v 1.018047 0.978241 -25.681929
v 1.468521 0.007554 -25.681797
v 0.054722 -0.652469 -21.953104
v -0.601794 0.004062 -23.390049
v 0.054724 -0.652409 -23.389874
v -0.601795 0.004003 -21.953279
v 0.054719 -0.652469 -18.262087
v -0.601798 0.004015 -18.262123
v 0.054715 -0.652458 -13.830217
v -0.601802 0.004018 -13.830181
v 0.054712 -0.652310 -10.050506
v -0.601805 0.004165 -10.050564
v 0.054688 -0.652344 -7.376709
v -0.601807 0.004150 -7.376709
v 0.054678 0.660579 -23.389978
v 0.054676 0.660520 -21.953211
v 0.054673 0.660545 -18.262159
v 0.054669 0.660539 -13.830143
v 0.054666 0.660442 -10.050621
v 0.054688 0.660645 -7.376709
v 0.047328 1.428647 -25.681974
v 0.047320 1.648409 -24.861557
v -1.073511 1.128350 -24.861469
v -0.923360 0.978000 -24.041061
v -1.593492 0.007482 -24.861486
v -1.373766 0.007525 -24.040930
v 0.710951 0.004108 -23.390047
v 0.710949 0.004049 -21.953279
v 0.710946 0.004061 -18.262123
v 0.710942 0.004064 -13.830179
v 1.018114 -0.963094 -24.041040
v 1.168266 -1.113271 -24.861502
v 0.047327 1.428718 -24.041103
v 0.710938 0.004150 -7.376709
v 0.710939 0.004211 -10.050563
v -0.923291 -0.962989 -25.681911
v -1.373764 0.007454 -25.681799

vt 0.077606 0.973389
vt 0.059387 0.973389
vt 0.080933 0.918030
vt 0.059387 0.993622
vt 0.059387 0.973389
vt 0.041199 0.973389
vt 0.037872 0.918030
vt 0.027893 0.918030
vt 0.023010 0.842438
vt 0.034546 0.842438
vt 0.027893 0.766846
vt 0.037872 0.766846
vt 0.041199 0.707642
vt 0.059387 0.707642
vt 0.059387 0.706116
vt 0.077606 0.707642
vt 0.059387 0.707642
vt 0.080933 0.766846
vt 0.059387 0.766846
vt 0.084259 0.842438
vt 0.059387 0.842438
vt 0.080933 0.918030
vt 0.059387 0.918030
vt 0.183899 0.010040
vt 0.006012 0.304749
vt 0.006012 0.010040
vt 0.183899 0.304749
vt 0.553772 0.010040
vt 0.553772 0.304749
vt 0.994537 0.010040
vt 0.994537 0.304749
vt 0.458038 0.010040
vt 0.458038 0.304749
vt 0.006012 0.010040
vt 0.006012 0.304749
vt 0.006012 0.599457
vt 0.183899 0.599457
vt 0.553772 0.599457
vt 0.994537 0.599457
vt 0.458038 0.599457
vt 0.006012 0.599457
vt 0.090912 0.918030
vt 0.095795 0.842438
vt 0.084259 0.842438
vt 0.080933 0.766846
vt 0.059387 0.842438
vt 0.059387 0.766846
vt 0.006012 0.304749
vt 0.183899 0.304749
vt 0.553772 0.304749
vt 0.994537 0.304749
vt 0.037872 0.766846
vt 0.034546 0.842438
vt 0.090912 0.766846
vt 0.006012 0.304749
vt 0.458038 0.304749
vt 0.037872 0.918030
vt 0.059387 0.918030

vn -0.000017 0.513203 -0.858267
vn -0.519047 -0.000015 -0.854745
vn -0.615820 0.619128 -0.487285
vn 0.000001 -0.000028 -1.000000
vn 0.519049 0.000022 -0.854745
vn 0.000019 -0.513194 -0.858273
vn 0.615815 -0.619135 -0.487282
vn 0.000031 -0.881608 -0.471982
vn 0.000035 -1.000000 0.000028
vn -0.707082 -0.707132 0.000024
vn 0.000030 -0.881599 0.472000
vn -0.615759 -0.619153 0.487331
vn 0.000017 -0.513203 0.858267
vn -0.519049 -0.000022 0.854745
vn -0.000001 0.000028 1.000000
vn -0.000019 0.513194 0.858273
vn 0.519047 0.000015 0.854745
vn 0.615771 0.619178 0.487284
vn 0.886869 0.000021 0.462020
vn 0.707082 0.707132 -0.000024
vn 1.000000 0.000035 0.000001
vn 0.615777 0.619171 -0.487284
vn 0.886870 0.000041 -0.462019
vn 0.000035 -1.000000 0.000028
vn -1.000000 -0.000035 -0.000001
vn 0.000035 -1.000000 0.000028
vn -1.000000 -0.000035 -0.000001
vn 0.000035 -1.000000 0.000020
vn -1.000000 -0.000035 -0.000001
vn 0.000035 -1.000000 0.000000
vn -1.000000 -0.000035 -0.000001
vn 0.000035 -1.000000 0.000017
vn -1.000000 -0.000035 -0.000001
vn 0.000000 -1.000000 0.000000
vn -1.000000 0.000000 0.000000
vn -0.000035 1.000000 -0.000028
vn -0.000035 1.000000 -0.000028
vn -0.000035 1.000000 -0.000020
vn -0.000035 1.000000 -0.000000
vn -0.000035 1.000000 -0.000017
vn 0.000000 1.000000 0.000000
vn -0.000030 0.881599 -0.472000
vn -0.000035 1.000000 -0.000028
vn -0.707132 0.707082 -0.000025
vn -0.615815 0.619135 0.487282
vn -1.000000 -0.000035 -0.000001
vn -0.886870 -0.000041 0.462019
vn 1.000000 0.000035 0.000001
vn 1.000000 0.000035 0.000001
vn 1.000000 0.000035 0.000001
vn 1.000000 0.000035 0.000001
vn 0.615801 -0.619110 0.487332
vn 0.707132 -0.707082 0.000025
vn -0.000031 0.881608 0.471982
vn 1.000000 0.000000 0.000000
vn 1.000000 0.000035 0.000001
vn -0.615771 -0.619178 -0.487284
vn -0.886869 -0.000021 -0.462020

g polygon1
s 1
usemtl mat2
f 19/19/19 20/20/20 21/21/21
f 19/19/19 22/22/22 20/20/20
f 23/23/23 22/22/22 19/19/19
f 23/23/23 24/24/24 22/22/22
f 25/25/25 24/24/24 23/23/23
f 25/25/25 26/26/26 24/24/24
f 27/27/27 26/26/26 25/25/25
f 27/27/27 28/28/28 26/26/26
f 29/29/29 28/28/28 27/27/27
f 29/29/29 30/30/30 28/28/28
f 31/31/31 30/30/30 29/29/29
f 31/31/31 32/32/32 30/30/30
f 33/33/33 32/32/32 31/31/31
f 33/33/33 34/34/34 32/32/32
f 35/35/35 34/34/34 33/33/33
f 35/35/35 36/36/36 34/34/34
f 37/37/37 36/36/36 35/35/35
f 37/37/37 38/38/38 36/36/36
f 39/39/39 38/38/38 37/37/37
f 39/39/39 40/40/40 38/38/38
f 41/41/41 40/40/40 39/39/39
f 41/41/41 23/23/23 40/40/40
f 25/25/25 23/23/23 41/41/41
f 42/42/42 43/43/43 44/44/44
f 42/42/42 45/45/45 43/43/43
f 46/46/46 45/45/45 42/42/42
f 46/46/46 47/47/47 45/45/45
f 48/48/48 47/47/47 46/46/46
f 48/48/48 49/49/49 47/47/47
f 50/50/50 49/49/49 48/48/48
f 50/50/50 51/51/51 49/49/49
f 52/52/52 51/51/51 50/50/50
f 52/52/52 53/53/53 51/51/51
f 45/45/45 54/54/54 43/43/43
f 45/45/45 55/55/55 54/54/54
f 47/47/47 55/55/55 45/45/45
f 47/47/47 56/56/56 55/55/55
f 49/49/49 56/56/56 47/47/47
f 49/49/49 57/57/57 56/56/56
f 51/51/51 57/57/57 49/49/49
f 51/51/51 58/58/58 57/57/57
f 53/53/53 58/58/58 51/51/51
f 53/53/53 59/59/59 58/58/58
f 19/19/19 40/40/40 23/23/23
f 19/19/19 60/60/60 40/40/40
f 21/21/21 60/60/60 19/19/19
f 21/21/21 61/61/61 60/60/60
f 62/62/62 61/61/61 21/21/21
f 62/62/62 63/63/63 61/61/61
f 64/64/64 63/63/63 62/62/62
f 64/64/64 65/65/65 63/63/63
f 28/28/28 65/65/65 64/64/64
f 28/28/28 30/30/30 65/65/65
f 55/55/55 66/66/66 54/54/54
f 55/55/55 67/67/67 66/66/66
f 56/56/56 67/67/67 55/55/55
f 56/56/56 68/68/68 67/67/67
f 69/69/69 68/68/68 56/56/56
f 69/69/69 46/46/46 68/68/68
f 48/48/48 46/46/46 69/69/69
f 31/31/31 35/35/35 33/33/33
f 31/31/31 70/70/70 35/35/35
f 29/29/29 70/70/70 31/31/31
f 29/29/29 71/71/71 70/70/70
f 27/27/27 71/71/71 29/29/29
f 27/27/27 25/25/25 71/71/71
f 70/70/70 37/37/37 35/35/35
f 70/70/70 39/39/39 37/37/37
f 71/71/71 39/39/39 70/70/70
f 71/71/71 41/41/41 39/39/39
f 25/25/25 41/41/41 71/71/71
f 61/61/61 36/36/36 38/38/38
f 61/61/61 72/72/72 36/36/36
f 63/63/63 72/72/72 61/61/61
f 63/63/63 34/34/34 72/72/72
f 32/32/32 34/34/34 63/63/63
f 67/67/67 44/44/44 66/66/66
f 67/67/67 42/42/42 44/44/44
f 68/68/68 42/42/42 67/67/67
f 68/68/68 46/46/46 42/42/42
f 73/73/73 58/58/58 59/59/59
f 73/73/73 74/74/74 58/58/58
f 52/52/52 74/74/74 73/73/73
f 52/52/52 50/50/50 74/74/74
f 24/24/24 20/20/20 22/22/22
f 24/24/24 75/75/75 20/20/20
f 26/26/26 75/75/75 24/24/24
f 26/26/26 28/28/28 75/75/75
f 64/64/64 75/75/75 28/28/28
f 64/64/64 76/76/76 75/75/75
f 62/62/62 76/76/76 64/64/64
f 62/62/62 21/21/21 76/76/76
f 57/57/57 69/69/69 56/56/56
f 57/57/57 58/58/58 69/69/69
f 48/48/48 74/74/74 50/50/50
f 48/48/48 69/69/69 74/74/74
f 76/76/76 20/20/20 75/75/75
f 76/76/76 21/21/21 20/20/20
f 60/60/60 38/38/38 40/40/40
f 60/60/60 61/61/61 38/38/38
f 65/65/65 32/32/32 63/63/63
f 65/65/65 30/30/30 32/32/32
f 74/74/74 69/69/69 58/58/58
f 34/34/34 36/36/36 72/72/72

