mtllib stg110_MotSpotBa_d2_04.mtl

v -14330.814453 1359.851929 7749.134277
v -14162.081055 1709.631348 7674.009277
v -14201.193359 1671.363525 7691.422852
v -14306.250977 1346.549438 7738.197754
v -14461.602539 1045.536865 7807.364746
v -14430.583008 1028.738525 7793.554199
v -14281.687500 1333.246826 7727.261230
v -14130.059570 1692.289917 7659.752441
v -14134.119141 1635.039185 7661.559570

vt 0.158569 0.751129
vt 0.348694 1.000000
vt 0.000000 1.000000
vt 0.500000 0.750000
vt 0.318573 0.500000
vt 0.681427 0.500000
vt 0.841431 0.751129
vt 0.651306 1.000000
vt 1.000000 1.000000

vn 7924809334889683200000000000000000.000000 7840161470883427500000000000000000.000000 -1.#QNAN0
vn 7924809334889683200000000000000000.000000 7840161470883427500000000000000000.000000 -1.#QNAN0
vn 7924809334889683200000000000000000.000000 7840161470883427500000000000000000.000000 -1.#QNAN0
vn 7900660838543343300000000000000000.000000 0.000000 0.000000
vn 7900660838543343300000000000000000.000000 0.000000 0.000000
vn 7900660838543343300000000000000000.000000 0.000000 0.000000
vn 7924809334889683200000000000000000.000000 7840161470883427500000000000000000.000000 -1.#QNAN0
vn 7900660838543343300000000000000000.000000 0.000000 0.000000
vn 7900660838543343300000000000000000.000000 0.000000 0.000000

g polygon0
s 1
usemtl mat1
f 1/1/1 2/2/2 3/3/3
f 1/1/1 4/4/4 2/2/2
f 5/5/5 4/4/4 1/1/1
f 5/5/5 6/6/6 4/4/4
f 7/7/7 4/4/4 6/6/6
f 7/7/7 8/8/8 4/4/4
f 9/9/9 8/8/8 7/7/7
f 8/8/8 2/2/2 4/4/4

v -14713.858398 1023.688660 8328.121094
v -14613.032227 1172.736328 8283.230469
v -14633.658203 1158.047241 8292.414063
v -14703.296875 1015.593628 8323.418945
v -14794.779297 888.120972 8364.149414
v -14781.443359 877.898560 8358.211914
v -14692.736328 1007.498535 8318.716797
v -14599.264648 1162.183350 8277.100586
v -14604.820313 1135.942505 8279.574219

vt 0.158569 0.751129
vt 0.348694 1.000000
vt 0.000000 1.000000
vt 0.500000 0.750000
vt 0.318573 0.500000
vt 0.681427 0.500000
vt 0.841431 0.751129
vt 0.651306 1.000000
vt 1.000000 1.000000

vn 7924809334889683200000000000000000.000000 7840161470883427500000000000000000.000000 -1.#QNAN0
vn 7924809334889683200000000000000000.000000 7840161470883427500000000000000000.000000 -1.#QNAN0
vn 7924809334889683200000000000000000.000000 7840161470883427500000000000000000.000000 -1.#QNAN0
vn 7900660838543343300000000000000000.000000 0.000000 0.000000
vn 7900660838543343300000000000000000.000000 0.000000 0.000000
vn 7900660838543343300000000000000000.000000 0.000000 0.000000
vn 7924809334889683200000000000000000.000000 7840161470883427500000000000000000.000000 -1.#QNAN0
vn 7900660838543343300000000000000000.000000 0.000000 0.000000
vn 7900660838543343300000000000000000.000000 0.000000 0.000000

g polygon1
s 1
usemtl mat1
f 10/10/10 11/11/11 12/12/12
f 10/10/10 13/13/13 11/11/11
f 14/14/14 13/13/13 10/10/10
f 14/14/14 15/15/15 13/13/13
f 16/16/16 13/13/13 15/15/15
f 16/16/16 17/17/17 13/13/13
f 18/18/18 17/17/17 16/16/16
f 17/17/17 11/11/11 13/13/13

v -14022.674805 1169.612549 8082.531738
v -13974.536133 1498.762573 8055.175293
v -13992.268555 1456.222412 8063.868652
v -14005.804688 1166.889648 8075.020508
v -14053.354492 880.423340 8101.362305
v -14032.051758 876.984863 8091.877930
v -13988.935547 1164.166748 8067.509766
v -13952.543945 1495.213013 8045.384277
v -13946.203125 1448.787231 8043.358887

vt 0.158569 0.751129
vt 0.348694 1.000000
vt 0.000000 1.000000
vt 0.500000 0.750000
vt 0.318573 0.500000
vt 0.681427 0.500000
vt 0.841431 0.751129
vt 0.651306 1.000000
vt 1.000000 1.000000

vn 7924809334889683200000000000000000.000000 7840161470883427500000000000000000.000000 -1.#QNAN0
vn 7924809334889683200000000000000000.000000 7840161470883427500000000000000000.000000 -1.#QNAN0
vn 7924809334889683200000000000000000.000000 7840161470883427500000000000000000.000000 -1.#QNAN0
vn 7900660838543343300000000000000000.000000 0.000000 0.000000
vn 7900660838543343300000000000000000.000000 0.000000 0.000000
vn 7900660838543343300000000000000000.000000 0.000000 0.000000
vn 7924809334889683200000000000000000.000000 7840161470883427500000000000000000.000000 -1.#QNAN0
vn 7900660838543343300000000000000000.000000 0.000000 0.000000
vn 7900660838543343300000000000000000.000000 0.000000 0.000000

g polygon2
s 1
usemtl mat1
f 19/19/19 20/20/20 21/21/21
f 19/19/19 22/22/22 20/20/20
f 23/23/23 22/22/22 19/19/19
f 23/23/23 24/24/24 22/22/22
f 25/25/25 22/22/22 24/24/24
f 25/25/25 26/26/26 22/22/22
f 27/27/27 26/26/26 25/25/25
f 26/26/26 20/20/20 22/22/22

v -15032.185547 1024.618652 8476.173828
v -15088.509766 1194.601929 8499.517578
v -15089.049805 1168.223755 8499.992188
v -15019.987305 1029.827026 8470.743164
v -14974.808594 879.721191 8452.141602
v -14959.404297 886.298340 8445.284180
v -15007.789063 1035.035400 8465.312500
v -15072.607422 1201.391724 8492.437500
v -15055.742188 1182.445923 8485.162109

vt 0.158569 0.751129
vt 0.348694 1.000000
vt 0.000000 1.000000
vt 0.500000 0.750000
vt 0.318573 0.500000
vt 0.681427 0.500000
vt 0.841431 0.751129
vt 0.651306 1.000000
vt 1.000000 1.000000

vn 7924809334889683200000000000000000.000000 7840161470883427500000000000000000.000000 -1.#QNAN0
vn 7924809334889683200000000000000000.000000 7840161470883427500000000000000000.000000 -1.#QNAN0
vn 7924809334889683200000000000000000.000000 7840161470883427500000000000000000.000000 -1.#QNAN0
vn 7900660838543343300000000000000000.000000 0.000000 0.000000
vn 7900660838543343300000000000000000.000000 0.000000 0.000000
vn 7900660838543343300000000000000000.000000 0.000000 0.000000
vn 7924809334889683200000000000000000.000000 7840161470883427500000000000000000.000000 -1.#QNAN0
vn 7900660838543343300000000000000000.000000 0.000000 0.000000
vn 7900660838543343300000000000000000.000000 0.000000 0.000000

g polygon3
s 1
usemtl mat1
f 28/28/28 29/29/29 30/30/30
f 28/28/28 31/31/31 29/29/29
f 32/32/32 31/31/31 28/28/28
f 32/32/32 33/33/33 31/31/31
f 34/34/34 31/31/31 33/33/33
f 34/34/34 35/35/35 31/31/31
f 36/36/36 35/35/35 34/34/34
f 35/35/35 29/29/29 31/31/31

v -15174.233398 1059.968872 8155.225098
v -15111.839844 1386.123169 8121.522461
v -15131.401367 1344.570557 8131.029785
v -15157.500977 1056.370239 8147.775391
v -15217.450195 772.805908 8179.637695
v -15196.321289 768.261475 8170.230469
v -15140.768555 1052.771484 8140.325684
v -15090.028320 1381.431885 8111.810547
v -15085.711914 1334.743896 8110.687500

vt 0.158569 0.751129
vt 0.348694 1.000000
vt 0.000000 1.000000
vt 0.500000 0.750000
vt 0.318573 0.500000
vt 0.681427 0.500000
vt 0.841431 0.751129
vt 0.651306 1.000000
vt 1.000000 1.000000

vn 7924809334889683200000000000000000.000000 7840161470883427500000000000000000.000000 -1.#QNAN0
vn 7924809334889683200000000000000000.000000 7840161470883427500000000000000000.000000 -1.#QNAN0
vn 7924809334889683200000000000000000.000000 7840161470883427500000000000000000.000000 -1.#QNAN0
vn 7900660838543343300000000000000000.000000 0.000000 0.000000
vn 7900660838543343300000000000000000.000000 0.000000 0.000000
vn 7900660838543343300000000000000000.000000 0.000000 0.000000
vn 7924809334889683200000000000000000.000000 7840161470883427500000000000000000.000000 -1.#QNAN0
vn 7900660838543343300000000000000000.000000 0.000000 0.000000
vn 7900660838543343300000000000000000.000000 0.000000 0.000000

g polygon4
s 1
usemtl mat1
f 37/37/37 38/38/38 39/39/39
f 37/37/37 40/40/40 38/38/38
f 41/41/41 40/40/40 37/37/37
f 41/41/41 42/42/42 40/40/40
f 43/43/43 40/40/40 42/42/42
f 43/43/43 44/44/44 40/40/40
f 45/45/45 44/44/44 43/43/43
f 44/44/44 38/38/38 40/40/40

v -15703.850586 982.787292 8272.906250
v -15801.488281 1298.504639 8310.496094
v -15799.049805 1251.820313 8310.203125
v -15687.769531 988.997070 8265.746094
v -15607.793945 711.333069 8235.273438
v -15587.487305 719.174744 8226.232422
v -15671.688477 995.206787 8258.586914
v -15780.524414 1306.599854 8301.162109
v -15755.138672 1268.776855 8290.652344

vt 0.158569 0.751129
vt 0.348694 1.000000
vt 0.000000 1.000000
vt 0.500000 0.750000
vt 0.318573 0.500000
vt 0.681427 0.500000
vt 0.841431 0.751129
vt 0.651306 1.000000
vt 1.000000 1.000000

vn 7924809334889683200000000000000000.000000 7840161470883427500000000000000000.000000 -1.#QNAN0
vn 7924809334889683200000000000000000.000000 7840161470883427500000000000000000.000000 -1.#QNAN0
vn 7924809334889683200000000000000000.000000 7840161470883427500000000000000000.000000 -1.#QNAN0
vn 7900660838543343300000000000000000.000000 0.000000 0.000000
vn 7900660838543343300000000000000000.000000 0.000000 0.000000
vn 7900660838543343300000000000000000.000000 0.000000 0.000000
vn 7924809334889683200000000000000000.000000 7840161470883427500000000000000000.000000 -1.#QNAN0
vn 7900660838543343300000000000000000.000000 0.000000 0.000000
vn 7900660838543343300000000000000000.000000 0.000000 0.000000

g polygon5
s 1
usemtl mat1
f 46/46/46 47/47/47 48/48/48
f 46/46/46 49/49/49 47/47/47
f 50/50/50 49/49/49 46/46/46
f 50/50/50 51/51/51 49/49/49
f 52/52/52 49/49/49 51/51/51
f 52/52/52 53/53/53 49/49/49
f 54/54/54 53/53/53 52/52/52
f 53/53/53 47/47/47 49/49/49

v -15781.146484 896.173462 8199.839844
v -15746.690430 1141.346436 8184.498535
v -15761.492188 1109.750488 8191.088867
v -15765.907227 894.009094 8193.054688
v -15800.977539 680.674316 8208.668945
v -15781.733398 677.941162 8200.100586
v -15750.667969 891.844666 8186.269531
v -15726.824219 1138.524902 8175.653320
v -15719.878906 1103.840332 8172.561523

vt 0.158569 0.751129
vt 0.348694 1.000000
vt 0.000000 1.000000
vt 0.500000 0.750000
vt 0.318573 0.500000
vt 0.681427 0.500000
vt 0.841431 0.751129
vt 0.651306 1.000000
vt 1.000000 1.000000

vn 7924809334889683200000000000000000.000000 7840161470883427500000000000000000.000000 -1.#QNAN0
vn 7924809334889683200000000000000000.000000 7840161470883427500000000000000000.000000 -1.#QNAN0
vn 7924809334889683200000000000000000.000000 7840161470883427500000000000000000.000000 -1.#QNAN0
vn 7900660838543343300000000000000000.000000 0.000000 0.000000
vn 7900660838543343300000000000000000.000000 0.000000 0.000000
vn 7900660838543343300000000000000000.000000 0.000000 0.000000
vn 7924809334889683200000000000000000.000000 7840161470883427500000000000000000.000000 -1.#QNAN0
vn 7900660838543343300000000000000000.000000 0.000000 0.000000
vn 7900660838543343300000000000000000.000000 0.000000 0.000000

g polygon6
s 1
usemtl mat1
f 55/55/55 56/56/56 57/57/57
f 55/55/55 58/58/58 56/56/56
f 59/59/59 58/58/58 55/55/55
f 59/59/59 60/60/60 58/58/58
f 61/61/61 58/58/58 60/60/60
f 61/61/61 62/62/62 58/58/58
f 63/63/63 62/62/62 61/61/61
f 62/62/62 56/56/56 58/58/58

v -14869.678711 1197.978638 8090.725586
v -14836.922852 1583.886963 8076.141602
v -14851.549805 1532.751831 8082.653809
v -14854.357422 1196.675781 8083.904297
v -14887.970703 860.192749 8098.869629
v -14868.623047 858.547485 8090.255371
v -14839.037109 1195.372803 8077.082520
v -14816.950195 1582.188477 8067.249512
v -14809.713867 1529.193970 8064.027344

vt 0.158569 0.751129
vt 0.348694 1.000000
vt 0.000000 1.000000
vt 0.500000 0.750000
vt 0.318573 0.500000
vt 0.681427 0.500000
vt 0.841431 0.751129
vt 0.651306 1.000000
vt 1.000000 1.000000

vn 7924809334889683200000000000000000.000000 7840161470883427500000000000000000.000000 -1.#QNAN0
vn 7924809334889683200000000000000000.000000 7840161470883427500000000000000000.000000 -1.#QNAN0
vn 7924809334889683200000000000000000.000000 7840161470883427500000000000000000.000000 -1.#QNAN0
vn 7900660838543343300000000000000000.000000 0.000000 0.000000
vn 7900660838543343300000000000000000.000000 0.000000 0.000000
vn 7900660838543343300000000000000000.000000 0.000000 0.000000
vn 7924809334889683200000000000000000.000000 7840161470883427500000000000000000.000000 -1.#QNAN0
vn 7900660838543343300000000000000000.000000 0.000000 0.000000
vn 7900660838543343300000000000000000.000000 0.000000 0.000000

g polygon7
s 1
usemtl mat1
f 64/64/64 65/65/65 66/66/66
f 64/64/64 67/67/67 65/65/65
f 68/68/68 67/67/67 64/64/64
f 68/68/68 69/69/69 67/67/67
f 70/70/70 67/67/67 69/69/69
f 70/70/70 71/71/71 67/67/67
f 72/72/72 71/71/71 70/70/70
f 71/71/71 65/65/65 67/67/67

v -15351.315430 1014.299866 8126.956543
v -15301.195313 1340.824829 8104.641602
v -15318.080078 1298.485474 8112.159180
v -15336.117188 1011.806519 8120.189941
v -15384.849609 727.556763 8141.887207
v -15365.658203 724.408081 8133.342285
v -15320.919922 1009.313049 8113.423828
v -15281.383789 1337.574341 8095.820801
v -15276.581055 1291.677002 8093.682617

vt 0.158569 0.751129
vt 0.348694 1.000000
vt 0.000000 1.000000
vt 0.500000 0.750000
vt 0.318573 0.500000
vt 0.681427 0.500000
vt 0.841431 0.751129
vt 0.651306 1.000000
vt 1.000000 1.000000

vn 7924809334889683200000000000000000.000000 7840161470883427500000000000000000.000000 -1.#QNAN0
vn 7924809334889683200000000000000000.000000 7840161470883427500000000000000000.000000 -1.#QNAN0
vn 7924809334889683200000000000000000.000000 7840161470883427500000000000000000.000000 -1.#QNAN0
vn 7900660838543343300000000000000000.000000 0.000000 0.000000
vn 7900660838543343300000000000000000.000000 0.000000 0.000000
vn 7900660838543343300000000000000000.000000 0.000000 0.000000
vn 7924809334889683200000000000000000.000000 7840161470883427500000000000000000.000000 -1.#QNAN0
vn 7900660838543343300000000000000000.000000 0.000000 0.000000
vn 7900660838543343300000000000000000.000000 0.000000 0.000000

g polygon8
s 1
usemtl mat1
f 73/73/73 74/74/74 75/75/75
f 73/73/73 76/76/76 74/74/74
f 77/77/77 76/76/76 73/73/73
f 77/77/77 78/78/78 76/76/76
f 79/79/79 76/76/76 78/78/78
f 79/79/79 80/80/80 76/76/76
f 81/81/81 80/80/80 79/79/79
f 80/80/80 74/74/74 76/76/76

v -14431.343750 1269.912720 8269.653320
v -14426.005859 1607.345947 8267.277344
v -14436.968750 1561.874146 8272.158203
v -14415.976563 1269.913452 8262.811523
v -14425.668945 975.323792 8267.126953
v -14406.262695 975.324646 8258.486328
v -14400.609375 1269.914063 8255.969727
v -14405.972656 1607.346924 8258.357422
v -14395.006836 1561.876099 8253.475586

vt 0.158569 0.751129
vt 0.348694 1.000000
vt 0.000000 1.000000
vt 0.500000 0.750000
vt 0.318573 0.500000
vt 0.681427 0.500000
vt 0.841431 0.751129
vt 0.651306 1.000000
vt 1.000000 1.000000

vn 7924809334889683200000000000000000.000000 7840161470883427500000000000000000.000000 -1.#QNAN0
vn 7924809334889683200000000000000000.000000 7840161470883427500000000000000000.000000 -1.#QNAN0
vn 7924809334889683200000000000000000.000000 7840161470883427500000000000000000.000000 -1.#QNAN0
vn 7900660838543343300000000000000000.000000 0.000000 0.000000
vn 7900660838543343300000000000000000.000000 0.000000 0.000000
vn 7900660838543343300000000000000000.000000 0.000000 0.000000
vn 7924809334889683200000000000000000.000000 7840161470883427500000000000000000.000000 -1.#QNAN0
vn 7900660838543343300000000000000000.000000 0.000000 0.000000
vn 7900660838543343300000000000000000.000000 0.000000 0.000000

g polygon9
s 1
usemtl mat1
f 82/82/82 83/83/83 84/84/84
f 82/82/82 85/85/85 83/83/83
f 86/86/86 85/85/85 82/82/82
f 86/86/86 87/87/87 85/85/85
f 88/88/88 85/85/85 87/87/87
f 88/88/88 89/89/89 85/85/85
f 90/90/90 89/89/89 88/88/88
f 89/89/89 83/83/83 85/85/85

