mtllib stg110_MotMonument_24.mtl

v 17791.187500 -1698.610718 -9394.518555
v 17827.021484 -1698.610718 -9504.800781
v 17885.000000 -1717.021484 -9425.000000
v 17730.861328 -1663.815308 -9475.083008
v 17710.009766 -1645.857300 -9368.142578
v 17652.031250 -1584.894897 -9447.943359
v 17652.394531 -1565.865234 -9349.421875
v 17616.197266 -1486.255615 -9398.623047
v 17652.031250 -1486.255615 -9288.341797
v 17628.720703 -1397.110107 -9341.730469
v 17683.039063 -1400.898926 -9245.663086
v 17683.039063 -1302.259521 -9306.625000
v 17741.242188 -1321.289307 -9227.133789
v 17776.849609 -1241.297119 -9276.144531
v 17834.828125 -1302.259521 -9196.343750
v 17885.000000 -1223.339233 -9262.928711
v 17935.171875 -1302.259521 -9196.343750
v 17993.150391 -1241.297119 -9276.144531
v 18028.757813 -1321.289307 -9227.133789
v 18086.960938 -1302.259521 -9306.625000
v 18086.960938 -1400.898926 -9245.663086
v 17942.978516 -1698.610718 -9504.800781
v 17885.000000 -1717.021484 -9425.000000
v 17885.000000 -1663.815308 -9587.071289
v 17776.849609 -1645.857422 -9573.855469
v 17834.828125 -1584.895020 -9653.657227
v 17741.242188 -1565.865234 -9622.866211
v 17776.849609 -1486.255615 -9672.495117
v 17683.039063 -1486.255615 -9604.336914
v 17726.611328 -1397.110107 -9643.003906
v 17652.031250 -1400.898926 -9561.659180
v 17710.009766 -1302.259644 -9580.497070
v 17652.394531 -1321.289307 -9500.578125
v 17710.009766 -1241.297119 -9481.858398
v 17652.031250 -1302.259644 -9402.056641
v 17730.861328 -1223.339233 -9374.916992
v 17978.812500 -1698.610718 -9394.518555
v 17885.000000 -1717.021484 -9425.000000
v 18039.138672 -1663.815308 -9475.083008
v 17993.150391 -1645.857422 -9573.855469
v 18086.960938 -1584.894897 -9543.375000
v 18028.757813 -1565.865234 -9622.866211
v 18086.960938 -1486.255615 -9604.336914
v 17993.150391 -1486.255615 -9672.495117
v 18043.388672 -1397.110107 -9643.003906
v 17942.978516 -1400.898926 -9688.796875
v 17978.812500 -1302.259644 -9639.477539
v 17885.000000 -1321.289307 -9669.576172
v 17885.000000 -1241.297241 -9608.996094
v 17791.187500 -1302.259644 -9639.477539
v 17789.736328 -1223.339355 -9556.118164
v 17885.000000 -1698.610718 -9326.360352
v 17885.000000 -1717.021484 -9425.000000
v 17980.263672 -1663.815186 -9293.881836
v 18059.990234 -1645.857300 -9368.142578
v 18059.990234 -1584.894897 -9269.502930
v 18117.605469 -1565.865234 -9349.421875
v 18117.968750 -1486.255615 -9288.340820
v 18153.802734 -1486.255615 -9398.623047
v 18141.279297 -1397.110107 -9341.730469
v 18153.802734 -1400.898926 -9451.376953
v 18117.968750 -1302.259644 -9402.056641
v 18117.605469 -1321.289307 -9500.578125
v 18059.990234 -1241.297119 -9481.857422
v 18059.990234 -1302.259644 -9580.497070
v 17980.263672 -1223.339233 -9556.118164
v 17885.000000 -1698.610718 -9326.360352
v 17885.000000 -1717.021484 -9425.000000
v 17789.736328 -1663.815308 -9293.881836
v 17885.000000 -1645.857300 -9241.003906
v 17791.187500 -1584.894897 -9210.522461
v 17885.000000 -1565.865234 -9180.423828
v 17827.021484 -1486.255615 -9161.203125
v 17942.978516 -1486.255615 -9161.203125
v 17885.000000 -1397.110107 -9155.533203
v 17993.150391 -1400.898926 -9177.504883
v 18086.960938 -1400.898926 -9245.663086
v 18086.960938 -1302.259521 -9306.625000
v 18039.138672 -1223.339233 -9374.916992
v 17978.812500 -1188.543945 -9455.481445
v 17885.000000 -1188.543945 -9523.639648
v 17683.039063 -1584.894897 -9543.375000
v 17628.720703 -1490.044434 -9508.270508
v 17616.197266 -1400.898926 -9451.376953
v 17935.171875 -1584.895020 -9653.657227
v 17885.000000 -1490.044556 -9694.466797
v 17827.021484 -1400.898926 -9688.796875
v 18117.968750 -1584.894897 -9447.943359
v 18141.279297 -1490.044434 -9508.269531
v 18117.968750 -1400.898926 -9561.659180
v 17710.009766 -1584.894897 -9269.502930
v 17726.611328 -1490.044434 -9206.996094
v 17776.849609 -1400.898926 -9177.504883
v 17980.263672 -1663.815186 -9293.881836
v 17978.810547 -1584.894897 -9210.522461
v 18059.990234 -1584.894897 -9269.502930
v 18043.388672 -1490.044434 -9206.996094
v 18117.968750 -1486.255615 -9288.340820
v 17993.150391 -1241.297119 -9276.144531
v 17942.978516 -1188.543945 -9345.199219
v 17885.000000 -1170.133057 -9425.000000
v 17942.978516 -1188.543945 -9345.199219
v 17827.021484 -1188.543945 -9345.199219
v 17885.000000 -1170.133057 -9425.000000
v 17791.187500 -1188.543945 -9455.481445
v 17885.000000 -1170.133057 -9425.000000
v 17885.000000 -1170.133057 -9425.000000
v 17885.000000 -1170.133057 -9425.000000

vt 0.683716 0.131958
vt 0.309753 0.131958
vt 0.496765 0.065002
vt 0.496765 0.213257
vt 0.683716 0.244995
vt 0.561035 0.333679
vt 0.683716 0.358032
vt 0.619324 0.452026
vt 0.748108 0.452026
vt 0.683716 0.552307
vt 0.806335 0.548035
vt 0.748047 0.666382
vt 0.870728 0.642029
vt 0.870728 0.755066
vt 0.993469 0.666382
vt 1.057739 0.786804
vt 1.122009 0.666382
vt 1.244751 0.755066
vt 1.244751 0.642029
vt 1.367432 0.666382
vt 1.309143 0.548035
vt -0.064270 0.131958
vt 0.122742 0.103821
vt 0.122742 0.213257
vt 0.309753 0.244995
vt 0.187012 0.333679
vt 0.309753 0.358032
vt 0.245361 0.452026
vt 0.374146 0.452026
vt 0.309753 0.552307
vt 0.432373 0.548035
vt 0.374023 0.666382
vt 0.496765 0.642029
vt 0.496765 0.755066
vt 0.619446 0.666382
vt 0.683716 0.786804
vt -0.438232 0.131958
vt -0.251282 0.075073
vt -0.251282 0.213257
vt -0.064270 0.244995
vt -0.186951 0.333679
vt -0.064270 0.358032
vt -0.128662 0.452026
vt 0.000122 0.452026
vt -0.064270 0.552307
vt 0.058350 0.548035
vt 0.000000 0.666382
vt 0.122742 0.642029
vt 0.122742 0.755066
vt 0.245483 0.666382
vt 0.309753 0.786804
vt -0.812256 0.131958
vt -0.625244 0.063843
vt -0.625244 0.213257
vt -0.438232 0.244995
vt -0.560974 0.333679
vt -0.438232 0.358032
vt -0.507080 0.452026
vt -0.373840 0.452026
vt -0.438232 0.552307
vt -0.315613 0.548035
vt -0.373962 0.666382
vt -0.251282 0.642029
vt -0.251282 0.755066
vt -0.128540 0.666382
vt -0.064270 0.786804
vt 1.057739 0.131958
vt 0.870728 0.054932
vt 0.870728 0.213257
vt 1.057739 0.244995
vt 0.934998 0.333679
vt 1.057739 0.358032
vt 0.993347 0.452026
vt 1.122131 0.452026
vt 1.057739 0.552307
vt 1.180359 0.548035
vt -0.565308 0.548035
vt -0.506958 0.666382
vt -0.438232 0.786804
vt -0.251282 0.868103
vt 0.122742 0.868103
vt 0.432434 0.333679
vt 0.496765 0.447754
vt 0.561096 0.548035
vt 0.058472 0.333679
vt 0.122742 0.447754
vt 0.187134 0.548035
vt -0.315552 0.333679
vt -0.251282 0.447754
vt -0.186890 0.548035
vt 0.806458 0.333679
vt 0.870728 0.447754
vt 0.935120 0.548035
vt 1.244751 0.213257
vt 1.180420 0.333679
vt 1.309021 0.333679
vt 1.244751 0.447754
vt 1.367310 0.452026
vt -0.625244 0.755066
vt -0.625244 0.868103
vt -0.438232 0.976074
vt 1.244751 0.868103
vt 0.870728 0.868103
vt 1.057739 0.955200
vt 0.496765 0.868103
vt 0.309753 0.995483
vt -0.064270 0.969604
vt 0.683716 0.989685

vn -0.340943 -0.933534 0.110779
vn -0.210752 -0.933522 -0.290036
vn 0.000000 -1.000000 0.000000
vn -0.569028 -0.801266 -0.184875
vn -0.641228 -0.738517 0.208372
vn -0.851620 -0.517027 -0.086181
vn -0.850659 -0.447211 0.276371
vn -0.982629 -0.159367 0.095095
vn -0.850838 -0.159364 0.500676
vn -0.936077 0.176815 0.304132
vn -0.739085 0.159365 0.654489
vn -0.739627 0.517031 0.430849
vn -0.525742 0.447192 0.723612
vn -0.396299 0.738520 0.545468
vn -0.181157 0.517042 0.836570
vn 0.000000 0.801258 0.598319
vn 0.181157 0.517042 0.836570
vn 0.396299 0.738520 0.545468
vn 0.525742 0.447192 0.723612
vn 0.739627 0.517031 0.430849
vn 0.739085 0.159365 0.654489
vn 0.210752 -0.933522 -0.290036
vn 0.000000 -1.000000 0.000000
vn 0.000000 -0.801258 -0.598319
vn -0.396299 -0.738520 -0.545468
vn -0.181157 -0.517042 -0.836570
vn -0.525742 -0.447192 -0.723612
vn -0.394101 -0.159362 -0.905145
vn -0.739085 -0.159365 -0.654489
vn -0.578504 0.176823 -0.796283
vn -0.850838 0.159364 -0.500676
vn -0.638303 0.517026 -0.570310
vn -0.850659 0.447211 -0.276371
vn -0.641228 0.738517 -0.208372
vn -0.851620 0.517027 0.086181
vn -0.569028 0.801266 0.184875
vn 0.340943 -0.933534 0.110779
vn 0.000000 -1.000000 0.000000
vn 0.569028 -0.801266 -0.184875
vn 0.396299 -0.738520 -0.545468
vn 0.739627 -0.517031 -0.430849
vn 0.525742 -0.447192 -0.723612
vn 0.739085 -0.159365 -0.654489
vn 0.394101 -0.159362 -0.905145
vn 0.578504 0.176823 -0.796283
vn 0.213195 0.159362 -0.963925
vn 0.345162 0.517041 -0.783283
vn 0.000000 0.447214 -0.894427
vn 0.000000 0.738511 -0.674242
vn -0.345162 0.517041 -0.783283
vn -0.351678 0.801254 -0.484061
vn 0.000000 -0.933523 0.358517
vn 0.000000 -1.000000 0.000000
vn 0.351678 -0.801254 0.484061
vn 0.641228 -0.738517 0.208372
vn 0.638303 -0.517026 0.570310
vn 0.850659 -0.447211 0.276371
vn 0.850838 -0.159364 0.500676
vn 0.982629 -0.159367 0.095095
vn 0.936077 0.176815 0.304132
vn 0.982629 0.159367 -0.095095
vn 0.851620 0.517027 0.086181
vn 0.850659 0.447211 -0.276371
vn 0.641228 0.738517 -0.208372
vn 0.638303 0.517026 -0.570310
vn 0.351678 0.801254 -0.484061
vn 0.000000 -0.933523 0.358517
vn 0.000000 -1.000000 0.000000
vn -0.351678 -0.801254 0.484061
vn 0.000000 -0.738511 0.674242
vn -0.345162 -0.517041 0.783283
vn 0.000000 -0.447214 0.894427
vn -0.213195 -0.159362 0.963925
vn 0.213195 -0.159362 0.963925
vn 0.000000 0.176817 0.984244
vn 0.394101 0.159362 0.905145
vn 0.739085 0.159365 0.654489
vn 0.739627 0.517031 0.430849
vn 0.569028 0.801266 0.184875
vn 0.340943 0.933534 -0.110779
vn 0.000000 0.933523 -0.358517
vn -0.739627 -0.517031 -0.430849
vn -0.936077 -0.176815 -0.304132
vn -0.982629 0.159367 -0.095095
vn 0.181157 -0.517042 -0.836570
vn 0.000000 -0.176817 -0.984244
vn -0.213195 0.159362 -0.963925
vn 0.851620 -0.517027 -0.086181
vn 0.936077 -0.176815 -0.304132
vn 0.850838 0.159364 -0.500676
vn -0.638303 -0.517026 0.570310
vn -0.578504 -0.176823 0.796283
vn -0.394101 0.159362 0.905145
vn 0.351678 -0.801254 0.484061
vn 0.345162 -0.517041 0.783283
vn 0.638303 -0.517026 0.570310
vn 0.578504 -0.176823 0.796283
vn 0.850838 -0.159364 0.500676
vn 0.396299 0.738520 0.545468
vn 0.210752 0.933522 0.290036
vn 0.000000 1.000000 0.000000
vn 0.210752 0.933522 0.290036
vn -0.210752 0.933522 0.290036
vn 0.000000 1.000000 0.000000
vn -0.340943 0.933534 -0.110779
vn 0.000000 1.000000 0.000000
vn 0.000000 1.000000 0.000000
vn 0.000000 1.000000 0.000000

g polygon0
s 1
usemtl mat1
f 1/1/1 2/2/2 3/3/3
f 1/1/1 4/4/4 2/2/2
f 5/5/5 4/4/4 1/1/1
f 5/5/5 6/6/6 4/4/4
f 7/7/7 6/6/6 5/5/5
f 7/7/7 8/8/8 6/6/6
f 9/9/9 8/8/8 7/7/7
f 9/9/9 10/10/10 8/8/8
f 11/11/11 10/10/10 9/9/9
f 11/11/11 12/12/12 10/10/10
f 13/13/13 12/12/12 11/11/11
f 13/13/13 14/14/14 12/12/12
f 15/15/15 14/14/14 13/13/13
f 15/15/15 16/16/16 14/14/14
f 17/17/17 16/16/16 15/15/15
f 17/17/17 18/18/18 16/16/16
f 19/19/19 18/18/18 17/17/17
f 19/19/19 20/20/20 18/18/18
f 21/21/21 20/20/20 19/19/19
f 2/2/2 22/22/22 23/23/23
f 2/2/2 24/24/24 22/22/22
f 25/25/25 24/24/24 2/2/2
f 25/25/25 26/26/26 24/24/24
f 27/27/27 26/26/26 25/25/25
f 27/27/27 28/28/28 26/26/26
f 29/29/29 28/28/28 27/27/27
f 29/29/29 30/30/30 28/28/28
f 31/31/31 30/30/30 29/29/29
f 31/31/31 32/32/32 30/30/30
f 33/33/33 32/32/32 31/31/31
f 33/33/33 34/34/34 32/32/32
f 35/35/35 34/34/34 33/33/33
f 35/35/35 36/36/36 34/34/34
f 12/12/12 36/36/36 35/35/35
f 12/12/12 14/14/14 36/36/36
f 22/22/22 37/37/37 38/38/38
f 22/22/22 39/39/39 37/37/37
f 40/40/40 39/39/39 22/22/22
f 40/40/40 41/41/41 39/39/39
f 42/42/42 41/41/41 40/40/40
f 42/42/42 43/43/43 41/41/41
f 44/44/44 43/43/43 42/42/42
f 44/44/44 45/45/45 43/43/43
f 46/46/46 45/45/45 44/44/44
f 46/46/46 47/47/47 45/45/45
f 48/48/48 47/47/47 46/46/46
f 48/48/48 49/49/49 47/47/47
f 50/50/50 49/49/49 48/48/48
f 50/50/50 51/51/51 49/49/49
f 32/32/32 51/51/51 50/50/50
f 32/32/32 34/34/34 51/51/51
f 37/37/37 52/52/52 53/53/53
f 37/37/37 54/54/54 52/52/52
f 55/55/55 54/54/54 37/37/37
f 55/55/55 56/56/56 54/54/54
f 57/57/57 56/56/56 55/55/55
f 57/57/57 58/58/58 56/56/56
f 59/59/59 58/58/58 57/57/57
f 59/59/59 60/60/60 58/58/58
f 61/61/61 60/60/60 59/59/59
f 61/61/61 62/62/62 60/60/60
f 63/63/63 62/62/62 61/61/61
f 63/63/63 64/64/64 62/62/62
f 65/65/65 64/64/64 63/63/63
f 65/65/65 66/66/66 64/64/64
f 47/47/47 66/66/66 65/65/65
f 47/47/47 49/49/49 66/66/66
f 67/67/67 1/1/1 68/68/68
f 67/67/67 69/69/69 1/1/1
f 70/70/70 69/69/69 67/67/67
f 70/70/70 71/71/71 69/69/69
f 72/72/72 71/71/71 70/70/70
f 72/72/72 73/73/73 71/71/71
f 74/74/74 73/73/73 72/72/72
f 74/74/74 75/75/75 73/73/73
f 76/76/76 75/75/75 74/74/74
f 76/76/76 17/17/17 75/75/75
f 19/19/19 17/17/17 76/76/76
f 60/60/60 77/77/77 58/58/58
f 60/60/60 78/78/78 77/77/77
f 62/62/62 78/78/78 60/60/60
f 62/62/62 79/79/79 78/78/78
f 64/64/64 79/79/79 62/62/62
f 64/64/64 80/80/80 79/79/79
f 66/66/66 80/80/80 64/64/64
f 66/66/66 81/81/81 80/80/80
f 49/49/49 81/81/81 66/66/66
f 49/49/49 51/51/51 81/81/81
f 4/4/4 25/25/25 2/2/2
f 4/4/4 82/82/82 25/25/25
f 6/6/6 82/82/82 4/4/4
f 6/6/6 83/83/83 82/82/82
f 8/8/8 83/83/83 6/6/6
f 8/8/8 84/84/84 83/83/83
f 10/10/10 84/84/84 8/8/8
f 10/10/10 35/35/35 84/84/84
f 12/12/12 35/35/35 10/10/10
f 24/24/24 40/40/40 22/22/22
f 24/24/24 85/85/85 40/40/40
f 26/26/26 85/85/85 24/24/24
f 26/26/26 86/86/86 85/85/85
f 28/28/28 86/86/86 26/26/26
f 28/28/28 87/87/87 86/86/86
f 30/30/30 87/87/87 28/28/28
f 30/30/30 50/50/50 87/87/87
f 32/32/32 50/50/50 30/30/30
f 39/39/39 55/55/55 37/37/37
f 39/39/39 88/88/88 55/55/55
f 41/41/41 88/88/88 39/39/39
f 41/41/41 89/89/89 88/88/88
f 43/43/43 89/89/89 41/41/41
f 43/43/43 90/90/90 89/89/89
f 45/45/45 90/90/90 43/43/43
f 45/45/45 65/65/65 90/90/90
f 47/47/47 65/65/65 45/45/45
f 69/69/69 5/5/5 1/1/1
f 69/69/69 91/91/91 5/5/5
f 71/71/71 91/91/91 69/69/69
f 71/71/71 92/92/92 91/91/91
f 73/73/73 92/92/92 71/71/71
f 73/73/73 93/93/93 92/92/92
f 75/75/75 93/93/93 73/73/73
f 75/75/75 15/15/15 93/93/93
f 17/17/17 15/15/15 75/75/75
f 82/82/82 27/27/27 25/25/25
f 82/82/82 29/29/29 27/27/27
f 83/83/83 29/29/29 82/82/82
f 83/83/83 31/31/31 29/29/29
f 84/84/84 31/31/31 83/83/83
f 84/84/84 33/33/33 31/31/31
f 35/35/35 33/33/33 84/84/84
f 85/85/85 42/42/42 40/40/40
f 85/85/85 44/44/44 42/42/42
f 86/86/86 44/44/44 85/85/85
f 86/86/86 46/46/46 44/44/44
f 87/87/87 46/46/46 86/86/86
f 87/87/87 48/48/48 46/46/46
f 50/50/50 48/48/48 87/87/87
f 88/88/88 57/57/57 55/55/55
f 88/88/88 59/59/59 57/57/57
f 89/89/89 59/59/59 88/88/88
f 89/89/89 61/61/61 59/59/59
f 90/90/90 61/61/61 89/89/89
f 90/90/90 63/63/63 61/61/61
f 65/65/65 63/63/63 90/90/90
f 91/91/91 7/7/7 5/5/5
f 91/91/91 9/9/9 7/7/7
f 92/92/92 9/9/9 91/91/91
f 92/92/92 11/11/11 9/9/9
f 93/93/93 11/11/11 92/92/92
f 93/93/93 13/13/13 11/11/11
f 15/15/15 13/13/13 93/93/93
f 94/94/94 70/70/70 67/67/67
f 94/94/94 95/95/95 70/70/70
f 96/96/96 95/95/95 94/94/94
f 96/96/96 97/97/97 95/95/95
f 98/98/98 97/97/97 96/96/96
f 98/98/98 21/21/21 97/97/97
f 95/95/95 72/72/72 70/70/70
f 95/95/95 74/74/74 72/72/72
f 97/97/97 74/74/74 95/95/95
f 97/97/97 76/76/76 74/74/74
f 21/21/21 76/76/76 97/97/97
f 21/21/21 19/19/19 76/76/76
f 79/79/79 99/99/99 78/78/78
f 79/79/79 100/100/100 99/99/99
f 80/80/80 100/100/100 79/79/79
f 80/80/80 101/101/101 100/100/100
f 102/102/102 16/16/16 18/18/18
f 102/102/102 103/103/103 16/16/16
f 104/104/104 103/103/103 102/102/102
f 103/103/103 14/14/14 16/16/16
f 103/103/103 36/36/36 14/14/14
f 105/105/105 36/36/36 103/103/103
f 81/81/81 105/105/105 106/106/106
f 81/81/81 51/51/51 105/105/105
f 34/34/34 105/105/105 51/51/51
f 34/34/34 36/36/36 105/105/105
f 80/80/80 81/81/81 107/107/107
f 105/105/105 103/103/103 108/108/108

