mtllib stg110_MotMonument_08.mtl

v -7960.634277 778.259583 4570.176270
v -8015.073242 778.259521 4672.560547
v -8058.313477 759.848694 4583.903809
v -7915.213379 813.054993 4659.991699
v -7876.107910 831.012878 4558.296875
v -7832.867676 891.975342 4646.953613
v -7816.117676 911.005005 4549.865723
v -7789.014648 990.614624 4604.605469
v -7805.152832 990.614624 4489.776367
v -7791.468750 1079.760132 4546.401855
v -7828.278320 1075.971313 4442.361816
v -7838.864258 1174.610596 4502.398438
v -7882.379883 1155.581055 4414.007324
v -7925.957520 1235.573120 4456.089844
v -7969.198242 1174.610596 4367.433105
v -8030.169922 1253.531006 4424.295410
v -8068.016113 1174.610596 4350.008789
v -8138.971680 1235.573120 4418.529297
v -8165.528320 1155.581055 4364.080078
v -8236.651367 1174.610596 4432.256836
v -8226.064453 1075.971313 4372.220703
v -8129.269043 778.259521 4652.424316
v -8058.313477 759.848694 4583.903809
v -8086.457031 813.054932 4743.512207
v -7977.655273 831.012878 4749.278320
v -8048.610352 891.975281 4817.798828
v -7951.098633 911.004944 4803.727539
v -7994.784180 990.614624 4846.419434
v -7890.562012 990.614624 4795.586914
v -7940.187500 1079.760132 4826.099609
v -7852.614258 1075.971313 4758.941406
v -7912.983398 1174.610596 4767.425781
v -7842.365723 1155.580933 4698.725586
v -7895.854980 1235.572998 4670.285156
v -7824.899414 1174.610596 4601.764648
v -7897.819824 1253.531006 4561.348145
v -8145.406738 778.259583 4537.595215
v -8058.313477 759.848694 4583.903809
v -8218.807617 813.054932 4606.459473
v -8190.669434 831.012878 4711.717773
v -8277.762695 891.975281 4665.409180
v -8234.247070 911.004944 4753.800293
v -8288.348633 990.614624 4725.445801
v -8207.797852 990.614624 4808.858887
v -8252.152344 1079.760132 4771.091309
v -8161.219727 1075.971313 4833.625000
v -8187.943848 1174.610596 4778.832031
v -8100.784180 1155.580933 4824.764160
v -8090.264648 1235.572998 4765.104492
v -8003.171387 1174.610596 4811.413086
v -7987.266602 1253.531006 4729.572266
v -8041.184570 778.259583 4486.763184
v -8058.313477 759.848694 4583.903809
v -8129.360352 813.054993 4438.235352
v -8220.772461 831.012878 4497.522461
v -8203.643555 891.975342 4400.381836
v -8274.260742 911.005005 4469.082031
v -8264.012695 990.614624 4408.866211
v -8318.451172 990.614624 4511.250488
v -8296.238281 1079.760132 4457.395996
v -8327.612305 1075.971313 4563.202148
v -8283.759766 1174.610596 4520.854492
v -8300.509766 1155.580933 4617.941895
v -8240.518555 1235.572998 4609.510742
v -8257.647461 1174.610596 4706.651367
v -8174.897949 1253.531006 4696.487793
v -8041.184570 778.259583 4486.763184
v -8058.313477 759.848694 4583.903809
v -7941.729004 813.054932 4471.320313
v -8026.362305 831.012939 4402.703125
v -7928.683105 891.975342 4388.975586
v -8015.842773 911.005005 4343.043457
v -7955.407227 990.614624 4334.182617
v -8069.603027 990.614624 4314.046875
v -8011.520508 1079.760254 4318.530762
v -8121.842773 1075.971313 4321.388672
v -8226.064453 1075.971313 4372.220703
v -8236.651367 1174.610596 4432.256836
v -8201.413086 1253.531006 4507.815918
v -8155.992676 1288.326416 4597.631836
v -8075.442383 1288.326416 4681.044434
v -7879.975586 891.975281 4735.550781
v -7820.388184 986.825745 4710.411621
v -7798.175293 1075.971313 4656.557129
v -8147.428711 891.975281 4800.374512
v -8105.106445 986.825745 4849.277344
v -8047.023926 1075.971313 4853.760742
v -8291.727539 891.975342 4566.042969
v -8325.158203 986.825745 4621.405762
v -8311.474609 1075.971313 4678.031250
v -7858.979492 891.975342 4461.156250
v -7864.474609 986.825806 4396.716797
v -7908.829102 1075.971313 4358.949219
v -8129.360352 813.054993 4438.235352
v -8113.455566 891.975342 4356.394531
v -8203.643555 891.975342 4400.381836
v -8176.439453 986.825806 4341.708008
v -8264.012695 990.614624 4408.866211
v -8138.971680 1235.573120 4418.529297
v -8101.553711 1288.326416 4495.247559
v -8058.313477 1306.737305 4583.903809
v -8101.553711 1288.326416 4495.247559
v -7987.358398 1288.326416 4515.383301
v -8058.313477 1306.737305 4583.903809
v -7971.220215 1288.326416 4630.212402
v -8058.313477 1306.737305 4583.903809
v -8058.313477 1306.737305 4583.903809
v -8058.313477 1306.737305 4583.903809

vt 0.683716 0.131958
vt 0.309753 0.131958
vt 0.496765 0.065002
vt 0.496765 0.213257
vt 0.683716 0.244995
vt 0.561035 0.333679
vt 0.683716 0.358032
vt 0.619324 0.452026
vt 0.748108 0.452026
vt 0.683716 0.552307
vt 0.806335 0.548035
vt 0.748047 0.666382
vt 0.870728 0.642029
vt 0.870728 0.755066
vt 0.993469 0.666382
vt 1.057739 0.786804
vt 1.122009 0.666382
vt 1.244751 0.755066
vt 1.244751 0.642029
vt 1.367432 0.666382
vt 1.309143 0.548035
vt -0.064270 0.131958
vt 0.122742 0.103821
vt 0.122742 0.213257
vt 0.309753 0.244995
vt 0.187012 0.333679
vt 0.309753 0.358032
vt 0.245361 0.452026
vt 0.374146 0.452026
vt 0.309753 0.552307
vt 0.432373 0.548035
vt 0.374023 0.666382
vt 0.496765 0.642029
vt 0.496765 0.755066
vt 0.619446 0.666382
vt 0.683716 0.786804
vt -0.438232 0.131958
vt -0.251282 0.075073
vt -0.251282 0.213257
vt -0.064270 0.244995
vt -0.186951 0.333679
vt -0.064270 0.358032
vt -0.128662 0.452026
vt 0.000122 0.452026
vt -0.064270 0.552307
vt 0.058350 0.548035
vt 0.000000 0.666382
vt 0.122742 0.642029
vt 0.122742 0.755066
vt 0.245483 0.666382
vt 0.309753 0.786804
vt -0.812256 0.131958
vt -0.625244 0.063843
vt -0.625244 0.213257
vt -0.438232 0.244995
vt -0.560974 0.333679
vt -0.438232 0.358032
vt -0.507080 0.452026
vt -0.373840 0.452026
vt -0.438232 0.552307
vt -0.315613 0.548035
vt -0.373962 0.666382
vt -0.251282 0.642029
vt -0.251282 0.755066
vt -0.128540 0.666382
vt -0.064270 0.786804
vt 1.057739 0.131958
vt 0.870728 0.054932
vt 0.870728 0.213257
vt 1.057739 0.244995
vt 0.934998 0.333679
vt 1.057739 0.358032
vt 0.993347 0.452026
vt 1.122131 0.452026
vt 1.057739 0.552307
vt 1.180359 0.548035
vt -0.565308 0.548035
vt -0.506958 0.666382
vt -0.438232 0.786804
vt -0.251282 0.868103
vt 0.122742 0.868103
vt 0.432434 0.333679
vt 0.496765 0.447754
vt 0.561096 0.548035
vt 0.058472 0.333679
vt 0.122742 0.447754
vt 0.187134 0.548035
vt -0.315552 0.333679
vt -0.251282 0.447754
vt -0.186890 0.548035
vt 0.806458 0.333679
vt 0.870728 0.447754
vt 0.935120 0.548035
vt 1.244751 0.213257
vt 1.180420 0.333679
vt 1.309021 0.333679
vt 1.244751 0.447754
vt 1.367310 0.452026
vt -0.625244 0.755066
vt -0.625244 0.868103
vt -0.438232 0.976074
vt 1.244751 0.868103
vt 0.870728 0.868103
vt 1.057739 0.955200
vt 0.496765 0.868103
vt 0.309753 0.995483
vt -0.064270 0.969604
vt 0.683716 0.989685

vn 0.355037 -0.933521 -0.049866
vn 0.157166 -0.933533 0.322204
vn 0.000000 -1.000000 0.000000
vn 0.528307 -0.801249 0.280876
vn 0.667665 -0.738527 -0.093812
vn 0.823714 -0.517018 0.232782
vn 0.885734 -0.447200 -0.124451
vn 0.984210 -0.159366 0.077026
vn 0.924871 -0.159364 -0.345279
vn 0.974667 0.176818 -0.136964
vn 0.841489 0.159362 -0.516236
vn 0.803220 0.517027 -0.295838
vn 0.643377 0.447209 -0.621345
vn 0.484981 0.738520 -0.468381
vn 0.323667 0.517026 -0.792416
vn 0.103880 0.801261 -0.589228
vn -0.033143 0.517020 -0.855332
vn -0.295531 0.738519 -0.606013
vn -0.392096 0.447211 -0.803905
vn -0.653572 0.517034 -0.552739
vn -0.614201 0.159364 -0.772891
vn -0.257874 -0.933535 0.249024
vn 0.000000 -1.000000 0.000000
vn -0.103880 -0.801261 0.589228
vn 0.295531 -0.738519 0.606013
vn 0.033143 -0.517020 0.855332
vn 0.392096 -0.447211 0.803905
vn 0.230897 -0.159363 0.959838
vn 0.614201 -0.159364 0.772891
vn 0.431456 0.176818 0.884636
vn 0.750978 0.159363 0.640808
vn 0.529550 0.517037 0.672495
vn 0.789732 0.447203 0.419920
vn 0.595327 0.738512 0.316522
vn 0.853645 0.517033 0.062988
vn 0.592513 0.801248 -0.083251
vn -0.316527 -0.933528 -0.168334
vn 0.000000 -1.000000 0.000000
vn -0.592513 -0.801248 0.083251
vn -0.484981 -0.738520 0.468381
vn -0.803220 -0.517027 0.295838
vn -0.643377 -0.447209 0.621345
vn -0.841489 -0.159362 0.516236
vn -0.545270 -0.159358 0.822973
vn -0.708004 0.176818 0.683714
vn -0.377383 0.159364 0.912242
vn -0.475957 0.517035 0.711435
vn -0.155331 0.447197 0.880845
vn -0.117063 0.738517 0.663994
vn 0.203924 0.517039 0.831315
vn 0.262265 0.801259 0.537774
vn 0.062254 -0.933518 -0.353083
vn 0.000000 -1.000000 0.000000
vn -0.262265 -0.801259 -0.537774
vn -0.595327 -0.738512 -0.316522
vn -0.529550 -0.517037 -0.672495
vn -0.789732 -0.447203 -0.419920
vn -0.750978 -0.159363 -0.640808
vn -0.951187 -0.159365 -0.264285
vn -0.869023 0.176820 -0.462098
vn -0.984210 0.159366 -0.077026
vn -0.823714 0.517018 -0.232782
vn -0.885734 0.447200 0.124451
vn -0.667665 0.738527 0.093812
vn -0.727648 0.517020 0.450799
vn -0.430407 0.801246 0.415638
vn 0.062254 -0.933518 -0.353083
vn 0.000000 -1.000000 0.000000
vn 0.430407 -0.801246 -0.415638
vn 0.117063 -0.738517 -0.663994
vn 0.475957 -0.517035 -0.711435
vn 0.155331 -0.447197 -0.880845
vn 0.377383 -0.159364 -0.912242
vn -0.042603 -0.159358 -0.986301
vn 0.170896 0.176818 -0.969294
vn -0.230897 0.159363 -0.959838
vn -0.614201 0.159364 -0.772891
vn -0.653572 0.517034 -0.552739
vn -0.528307 0.801249 -0.280876
vn -0.355037 0.933521 0.049866
vn -0.062254 0.933518 0.353083
vn 0.653572 -0.517034 0.552739
vn 0.869023 -0.176820 0.462098
vn 0.951187 0.159365 0.264285
vn -0.323667 -0.517026 0.792416
vn -0.170896 -0.176818 0.969294
vn 0.042603 0.159358 0.986301
vn -0.853645 -0.517033 -0.062988
vn -0.974667 -0.176818 0.136964
vn -0.924871 0.159364 0.345279
vn 0.727648 -0.517020 -0.450799
vn 0.708004 -0.176818 -0.683714
vn 0.545270 0.159358 -0.822973
vn -0.262265 -0.801259 -0.537774
vn -0.203924 -0.517039 -0.831315
vn -0.529550 -0.517037 -0.672495
vn -0.431456 -0.176818 -0.884636
vn -0.750978 -0.159363 -0.640808
vn -0.295531 0.738519 -0.606013
vn -0.157166 0.933533 -0.322204
vn 0.000000 1.000000 0.000000
vn -0.157166 0.933533 -0.322204
vn 0.257874 0.933535 -0.249024
vn 0.000000 1.000000 0.000000
vn 0.316527 0.933528 0.168334
vn 0.000000 1.000000 0.000000
vn 0.000000 1.000000 0.000000
vn 0.000000 1.000000 0.000000

g polygon0
s 1
usemtl mat1
f 1/1/1 2/2/2 3/3/3
f 1/1/1 4/4/4 2/2/2
f 5/5/5 4/4/4 1/1/1
f 5/5/5 6/6/6 4/4/4
f 7/7/7 6/6/6 5/5/5
f 7/7/7 8/8/8 6/6/6
f 9/9/9 8/8/8 7/7/7
f 9/9/9 10/10/10 8/8/8
f 11/11/11 10/10/10 9/9/9
f 11/11/11 12/12/12 10/10/10
f 13/13/13 12/12/12 11/11/11
f 13/13/13 14/14/14 12/12/12
f 15/15/15 14/14/14 13/13/13
f 15/15/15 16/16/16 14/14/14
f 17/17/17 16/16/16 15/15/15
f 17/17/17 18/18/18 16/16/16
f 19/19/19 18/18/18 17/17/17
f 19/19/19 20/20/20 18/18/18
f 21/21/21 20/20/20 19/19/19
f 2/2/2 22/22/22 23/23/23
f 2/2/2 24/24/24 22/22/22
f 25/25/25 24/24/24 2/2/2
f 25/25/25 26/26/26 24/24/24
f 27/27/27 26/26/26 25/25/25
f 27/27/27 28/28/28 26/26/26
f 29/29/29 28/28/28 27/27/27
f 29/29/29 30/30/30 28/28/28
f 31/31/31 30/30/30 29/29/29
f 31/31/31 32/32/32 30/30/30
f 33/33/33 32/32/32 31/31/31
f 33/33/33 34/34/34 32/32/32
f 35/35/35 34/34/34 33/33/33
f 35/35/35 36/36/36 34/34/34
f 12/12/12 36/36/36 35/35/35
f 12/12/12 14/14/14 36/36/36
f 22/22/22 37/37/37 38/38/38
f 22/22/22 39/39/39 37/37/37
f 40/40/40 39/39/39 22/22/22
f 40/40/40 41/41/41 39/39/39
f 42/42/42 41/41/41 40/40/40
f 42/42/42 43/43/43 41/41/41
f 44/44/44 43/43/43 42/42/42
f 44/44/44 45/45/45 43/43/43
f 46/46/46 45/45/45 44/44/44
f 46/46/46 47/47/47 45/45/45
f 48/48/48 47/47/47 46/46/46
f 48/48/48 49/49/49 47/47/47
f 50/50/50 49/49/49 48/48/48
f 50/50/50 51/51/51 49/49/49
f 32/32/32 51/51/51 50/50/50
f 32/32/32 34/34/34 51/51/51
f 37/37/37 52/52/52 53/53/53
f 37/37/37 54/54/54 52/52/52
f 55/55/55 54/54/54 37/37/37
f 55/55/55 56/56/56 54/54/54
f 57/57/57 56/56/56 55/55/55
f 57/57/57 58/58/58 56/56/56
f 59/59/59 58/58/58 57/57/57
f 59/59/59 60/60/60 58/58/58
f 61/61/61 60/60/60 59/59/59
f 61/61/61 62/62/62 60/60/60
f 63/63/63 62/62/62 61/61/61
f 63/63/63 64/64/64 62/62/62
f 65/65/65 64/64/64 63/63/63
f 65/65/65 66/66/66 64/64/64
f 47/47/47 66/66/66 65/65/65
f 47/47/47 49/49/49 66/66/66
f 67/67/67 1/1/1 68/68/68
f 67/67/67 69/69/69 1/1/1
f 70/70/70 69/69/69 67/67/67
f 70/70/70 71/71/71 69/69/69
f 72/72/72 71/71/71 70/70/70
f 72/72/72 73/73/73 71/71/71
f 74/74/74 73/73/73 72/72/72
f 74/74/74 75/75/75 73/73/73
f 76/76/76 75/75/75 74/74/74
f 76/76/76 17/17/17 75/75/75
f 19/19/19 17/17/17 76/76/76
f 60/60/60 77/77/77 58/58/58
f 60/60/60 78/78/78 77/77/77
f 62/62/62 78/78/78 60/60/60
f 62/62/62 79/79/79 78/78/78
f 64/64/64 79/79/79 62/62/62
f 64/64/64 80/80/80 79/79/79
f 66/66/66 80/80/80 64/64/64
f 66/66/66 81/81/81 80/80/80
f 49/49/49 81/81/81 66/66/66
f 49/49/49 51/51/51 81/81/81
f 4/4/4 25/25/25 2/2/2
f 4/4/4 82/82/82 25/25/25
f 6/6/6 82/82/82 4/4/4
f 6/6/6 83/83/83 82/82/82
f 8/8/8 83/83/83 6/6/6
f 8/8/8 84/84/84 83/83/83
f 10/10/10 84/84/84 8/8/8
f 10/10/10 35/35/35 84/84/84
f 12/12/12 35/35/35 10/10/10
f 24/24/24 40/40/40 22/22/22
f 24/24/24 85/85/85 40/40/40
f 26/26/26 85/85/85 24/24/24
f 26/26/26 86/86/86 85/85/85
f 28/28/28 86/86/86 26/26/26
f 28/28/28 87/87/87 86/86/86
f 30/30/30 87/87/87 28/28/28
f 30/30/30 50/50/50 87/87/87
f 32/32/32 50/50/50 30/30/30
f 39/39/39 55/55/55 37/37/37
f 39/39/39 88/88/88 55/55/55
f 41/41/41 88/88/88 39/39/39
f 41/41/41 89/89/89 88/88/88
f 43/43/43 89/89/89 41/41/41
f 43/43/43 90/90/90 89/89/89
f 45/45/45 90/90/90 43/43/43
f 45/45/45 65/65/65 90/90/90
f 47/47/47 65/65/65 45/45/45
f 69/69/69 5/5/5 1/1/1
f 69/69/69 91/91/91 5/5/5
f 71/71/71 91/91/91 69/69/69
f 71/71/71 92/92/92 91/91/91
f 73/73/73 92/92/92 71/71/71
f 73/73/73 93/93/93 92/92/92
f 75/75/75 93/93/93 73/73/73
f 75/75/75 15/15/15 93/93/93
f 17/17/17 15/15/15 75/75/75
f 82/82/82 27/27/27 25/25/25
f 82/82/82 29/29/29 27/27/27
f 83/83/83 29/29/29 82/82/82
f 83/83/83 31/31/31 29/29/29
f 84/84/84 31/31/31 83/83/83
f 84/84/84 33/33/33 31/31/31
f 35/35/35 33/33/33 84/84/84
f 85/85/85 42/42/42 40/40/40
f 85/85/85 44/44/44 42/42/42
f 86/86/86 44/44/44 85/85/85
f 86/86/86 46/46/46 44/44/44
f 87/87/87 46/46/46 86/86/86
f 87/87/87 48/48/48 46/46/46
f 50/50/50 48/48/48 87/87/87
f 88/88/88 57/57/57 55/55/55
f 88/88/88 59/59/59 57/57/57
f 89/89/89 59/59/59 88/88/88
f 89/89/89 61/61/61 59/59/59
f 90/90/90 61/61/61 89/89/89
f 90/90/90 63/63/63 61/61/61
f 65/65/65 63/63/63 90/90/90
f 91/91/91 7/7/7 5/5/5
f 91/91/91 9/9/9 7/7/7
f 92/92/92 9/9/9 91/91/91
f 92/92/92 11/11/11 9/9/9
f 93/93/93 11/11/11 92/92/92
f 93/93/93 13/13/13 11/11/11
f 15/15/15 13/13/13 93/93/93
f 94/94/94 70/70/70 67/67/67
f 94/94/94 95/95/95 70/70/70
f 96/96/96 95/95/95 94/94/94
f 96/96/96 97/97/97 95/95/95
f 98/98/98 97/97/97 96/96/96
f 98/98/98 21/21/21 97/97/97
f 95/95/95 72/72/72 70/70/70
f 95/95/95 74/74/74 72/72/72
f 97/97/97 74/74/74 95/95/95
f 97/97/97 76/76/76 74/74/74
f 21/21/21 76/76/76 97/97/97
f 21/21/21 19/19/19 76/76/76
f 79/79/79 99/99/99 78/78/78
f 79/79/79 100/100/100 99/99/99
f 80/80/80 100/100/100 79/79/79
f 80/80/80 101/101/101 100/100/100
f 102/102/102 16/16/16 18/18/18
f 102/102/102 103/103/103 16/16/16
f 104/104/104 103/103/103 102/102/102
f 103/103/103 14/14/14 16/16/16
f 103/103/103 36/36/36 14/14/14
f 105/105/105 36/36/36 103/103/103
f 81/81/81 105/105/105 106/106/106
f 81/81/81 51/51/51 105/105/105
f 34/34/34 105/105/105 51/51/51
f 34/34/34 36/36/36 105/105/105
f 80/80/80 81/81/81 107/107/107
f 105/105/105 103/103/103 108/108/108

