mtllib stg110_MotSpotBa_d3_04.mtl

v -16927.041016 1307.123657 8951.749023
v -16760.306641 1831.792847 8730.485352
v -16798.955078 1774.390991 8781.773438
v -16902.767578 1287.169922 8919.538086
v -17056.279297 835.651062 9123.253906
v -17025.626953 810.453552 9082.578125
v -16878.494141 1267.215942 8887.327148
v -16728.664063 1805.780640 8688.494141
v -16732.675781 1719.904541 8693.817383

vt 0.158569 0.751129
vt 0.348694 1.000000
vt 0.000000 1.000000
vt 0.500000 0.750000
vt 0.318573 0.500000
vt 0.681427 0.500000
vt 0.841431 0.751129
vt 0.651306 1.000000
vt 1.000000 1.000000

vn 7924809334889683200000000000000000.000000 7840161470883427500000000000000000.000000 -1.#QNAN0
vn 7924809334889683200000000000000000.000000 7840161470883427500000000000000000.000000 -1.#QNAN0
vn 7924809334889683200000000000000000.000000 7840161470883427500000000000000000.000000 -1.#QNAN0
vn 7900660838543343300000000000000000.000000 0.000000 0.000000
vn 7900660838543343300000000000000000.000000 0.000000 0.000000
vn 7900660838543343300000000000000000.000000 0.000000 0.000000
vn 7924809334889683200000000000000000.000000 7840161470883427500000000000000000.000000 -1.#QNAN0
vn 7900660838543343300000000000000000.000000 0.000000 0.000000
vn 7900660838543343300000000000000000.000000 0.000000 0.000000

g polygon0
s 1
usemtl mat1
f 1/1/1 2/2/2 3/3/3
f 1/1/1 4/4/4 2/2/2
f 5/5/5 4/4/4 1/1/1
f 5/5/5 6/6/6 4/4/4
f 7/7/7 4/4/4 6/6/6
f 7/7/7 8/8/8 4/4/4
f 9/9/9 8/8/8 7/7/7
f 8/8/8 2/2/2 4/4/4

v -17008.521484 802.878723 9989.893555
v -16908.888672 1026.450195 9857.677734
v -16929.271484 1004.416504 9884.726563
v -16998.085938 790.736145 9976.044922
v -17088.484375 599.527222 10096.007813
v -17075.304688 584.193604 10078.519531
v -16987.648438 778.593506 9962.196289
v -16895.285156 1010.620789 9839.624023
v -16900.775391 971.259521 9846.910156

vt 0.158569 0.751129
vt 0.348694 1.000000
vt 0.000000 1.000000
vt 0.500000 0.750000
vt 0.318573 0.500000
vt 0.681427 0.500000
vt 0.841431 0.751129
vt 0.651306 1.000000
vt 1.000000 1.000000

vn 7924809334889683200000000000000000.000000 7840161470883427500000000000000000.000000 -1.#QNAN0
vn 7924809334889683200000000000000000.000000 7840161470883427500000000000000000.000000 -1.#QNAN0
vn 7924809334889683200000000000000000.000000 7840161470883427500000000000000000.000000 -1.#QNAN0
vn 7900660838543343300000000000000000.000000 0.000000 0.000000
vn 7900660838543343300000000000000000.000000 0.000000 0.000000
vn 7900660838543343300000000000000000.000000 0.000000 0.000000
vn 7924809334889683200000000000000000.000000 7840161470883427500000000000000000.000000 -1.#QNAN0
vn 7900660838543343300000000000000000.000000 0.000000 0.000000
vn 7900660838543343300000000000000000.000000 0.000000 0.000000

g polygon1
s 1
usemtl mat1
f 10/10/10 11/11/11 12/12/12
f 10/10/10 13/13/13 11/11/11
f 14/14/14 13/13/13 10/10/10
f 14/14/14 15/15/15 13/13/13
f 16/16/16 13/13/13 15/15/15
f 16/16/16 17/17/17 13/13/13
f 18/18/18 17/17/17 16/16/16
f 17/17/17 11/11/11 13/13/13

v -16280.333008 1021.764587 9165.060547
v -16237.072266 1515.489624 9094.164063
v -16254.013672 1451.679321 9118.463867
v -16263.663086 1017.680237 9142.938477
v -16306.888672 587.980652 9212.076172
v -16285.837891 582.823059 9184.140625
v -16246.993164 1013.595886 9120.816406
v -16215.340820 1510.165161 9065.325195
v -16208.494141 1440.526611 9058.057617

vt 0.158569 0.751129
vt 0.348694 1.000000
vt 0.000000 1.000000
vt 0.500000 0.750000
vt 0.318573 0.500000
vt 0.681427 0.500000
vt 0.841431 0.751129
vt 0.651306 1.000000
vt 1.000000 1.000000

vn 7924809334889683200000000000000000.000000 7840161470883427500000000000000000.000000 -1.#QNAN0
vn 7924809334889683200000000000000000.000000 7840161470883427500000000000000000.000000 -1.#QNAN0
vn 7924809334889683200000000000000000.000000 7840161470883427500000000000000000.000000 -1.#QNAN0
vn 7900660838543343300000000000000000.000000 0.000000 0.000000
vn 7900660838543343300000000000000000.000000 0.000000 0.000000
vn 7900660838543343300000000000000000.000000 0.000000 0.000000
vn 7924809334889683200000000000000000.000000 7840161470883427500000000000000000.000000 -1.#QNAN0
vn 7900660838543343300000000000000000.000000 0.000000 0.000000
vn 7900660838543343300000000000000000.000000 0.000000 0.000000

g polygon2
s 1
usemtl mat1
f 19/19/19 20/20/20 21/21/21
f 19/19/19 22/22/22 20/20/20
f 23/23/23 22/22/22 19/19/19
f 23/23/23 24/24/24 22/22/22
f 25/25/25 22/22/22 24/24/24
f 25/25/25 26/26/26 22/22/22
f 27/27/27 26/26/26 25/25/25
f 26/26/26 20/20/20 22/22/22

v -17318.478516 804.273804 10415.622070
v -17375.396484 1059.248779 10487.206055
v -17375.761719 1019.681458 10488.221680
v -17306.425781 812.086365 10399.625977
v -17260.681641 586.927612 10342.368164
v -17245.458984 596.793213 10322.168945
v -17294.371094 819.898926 10383.630859
v -17359.683594 1069.433472 10466.354492
v -17342.847656 1041.014648 10444.544922

vt 0.158569 0.751129
vt 0.348694 1.000000
vt 0.000000 1.000000
vt 0.500000 0.750000
vt 0.318573 0.500000
vt 0.681427 0.500000
vt 0.841431 0.751129
vt 0.651306 1.000000
vt 1.000000 1.000000

vn 7924809334889683200000000000000000.000000 7840161470883427500000000000000000.000000 -1.#QNAN0
vn 7924809334889683200000000000000000.000000 7840161470883427500000000000000000.000000 -1.#QNAN0
vn 7924809334889683200000000000000000.000000 7840161470883427500000000000000000.000000 -1.#QNAN0
vn 7900660838543343300000000000000000.000000 0.000000 0.000000
vn 7900660838543343300000000000000000.000000 0.000000 0.000000
vn 7900660838543343300000000000000000.000000 0.000000 0.000000
vn 7924809334889683200000000000000000.000000 7840161470883427500000000000000000.000000 -1.#QNAN0
vn 7900660838543343300000000000000000.000000 0.000000 0.000000
vn 7900660838543343300000000000000000.000000 0.000000 0.000000

g polygon3
s 1
usemtl mat1
f 28/28/28 29/29/29 30/30/30
f 28/28/28 31/31/31 29/29/29
f 32/32/32 31/31/31 28/28/28
f 32/32/32 33/33/33 31/31/31
f 34/34/34 31/31/31 33/33/33
f 34/34/34 35/35/35 31/31/31
f 36/36/36 35/35/35 34/34/34
f 35/35/35 29/29/29 31/31/31

v -17738.232422 857.299011 10097.859375
v -17680.886719 1346.530518 10008.271484
v -17699.636719 1284.201538 10034.969727
v -17721.699219 851.901001 10075.917969
v -17777.177734 426.554535 10161.315430
v -17756.298828 419.737946 10133.608398
v -17705.166016 846.502869 10053.976563
v -17659.333984 1339.493530 9979.667969
v -17654.488281 1269.461548 9975.055664

vt 0.158569 0.751129
vt 0.348694 1.000000
vt 0.000000 1.000000
vt 0.500000 0.750000
vt 0.318573 0.500000
vt 0.681427 0.500000
vt 0.841431 0.751129
vt 0.651306 1.000000
vt 1.000000 1.000000

vn 7924809334889683200000000000000000.000000 7840161470883427500000000000000000.000000 -1.#QNAN0
vn 7924809334889683200000000000000000.000000 7840161470883427500000000000000000.000000 -1.#QNAN0
vn 7924809334889683200000000000000000.000000 7840161470883427500000000000000000.000000 -1.#QNAN0
vn 7900660838543343300000000000000000.000000 0.000000 0.000000
vn 7900660838543343300000000000000000.000000 0.000000 0.000000
vn 7900660838543343300000000000000000.000000 0.000000 0.000000
vn 7924809334889683200000000000000000.000000 7840161470883427500000000000000000.000000 -1.#QNAN0
vn 7900660838543343300000000000000000.000000 0.000000 0.000000
vn 7900660838543343300000000000000000.000000 0.000000 0.000000

g polygon4
s 1
usemtl mat1
f 37/37/37 38/38/38 39/39/39
f 37/37/37 40/40/40 38/38/38
f 41/41/41 40/40/40 37/37/37
f 41/41/41 42/42/42 40/40/40
f 43/43/43 40/40/40 42/42/42
f 43/43/43 44/44/44 40/40/40
f 45/45/45 44/44/44 43/43/43
f 44/44/44 38/38/38 40/40/40

v -18347.474609 741.526672 10637.393555
v -18448.232422 1215.102783 10757.711914
v -18445.246094 1145.076172 10755.554688
v -18331.583984 750.841370 10616.306641
v -18248.822266 334.345398 10518.168945
v -18228.755859 346.107849 10491.540039
v -18315.693359 760.155945 10595.218750
v -18427.517578 1227.245483 10730.222656
v -18401.855469 1170.511108 10697.973633

vt 0.158569 0.751129
vt 0.348694 1.000000
vt 0.000000 1.000000
vt 0.500000 0.750000
vt 0.318573 0.500000
vt 0.681427 0.500000
vt 0.841431 0.751129
vt 0.651306 1.000000
vt 1.000000 1.000000

vn 7924809334889683200000000000000000.000000 7840161470883427500000000000000000.000000 -1.#QNAN0
vn 7924809334889683200000000000000000.000000 7840161470883427500000000000000000.000000 -1.#QNAN0
vn 7924809334889683200000000000000000.000000 7840161470883427500000000000000000.000000 -1.#QNAN0
vn 7900660838543343300000000000000000.000000 0.000000 0.000000
vn 7900660838543343300000000000000000.000000 0.000000 0.000000
vn 7900660838543343300000000000000000.000000 0.000000 0.000000
vn 7924809334889683200000000000000000.000000 7840161470883427500000000000000000.000000 -1.#QNAN0
vn 7900660838543343300000000000000000.000000 0.000000 0.000000
vn 7900660838543343300000000000000000.000000 0.000000 0.000000

g polygon5
s 1
usemtl mat1
f 46/46/46 47/47/47 48/48/48
f 46/46/46 49/49/49 47/47/47
f 50/50/50 49/49/49 46/46/46
f 50/50/50 51/51/51 49/49/49
f 52/52/52 49/49/49 51/51/51
f 52/52/52 53/53/53 49/49/49
f 54/54/54 53/53/53 52/52/52
f 53/53/53 47/47/47 49/49/49

v -18502.017578 611.605957 10597.745117
v -18467.968750 979.365356 10552.562500
v -18482.595703 931.971497 10571.972656
v -18486.958984 608.359375 10577.761719
v -18521.613281 288.357239 10623.750977
v -18502.597656 284.257507 10598.514648
v -18471.900391 605.112732 10557.778320
v -18448.337891 975.133057 10526.511719
v -18441.476563 923.106262 10517.404297

vt 0.158569 0.751129
vt 0.348694 1.000000
vt 0.000000 1.000000
vt 0.500000 0.750000
vt 0.318573 0.500000
vt 0.681427 0.500000
vt 0.841431 0.751129
vt 0.651306 1.000000
vt 1.000000 1.000000

vn 7924809334889683200000000000000000.000000 7840161470883427500000000000000000.000000 -1.#QNAN0
vn 7924809334889683200000000000000000.000000 7840161470883427500000000000000000.000000 -1.#QNAN0
vn 7924809334889683200000000000000000.000000 7840161470883427500000000000000000.000000 -1.#QNAN0
vn 7900660838543343300000000000000000.000000 0.000000 0.000000
vn 7900660838543343300000000000000000.000000 0.000000 0.000000
vn 7900660838543343300000000000000000.000000 0.000000 0.000000
vn 7924809334889683200000000000000000.000000 7840161470883427500000000000000000.000000 -1.#QNAN0
vn 7900660838543343300000000000000000.000000 0.000000 0.000000
vn 7900660838543343300000000000000000.000000 0.000000 0.000000

g polygon6
s 1
usemtl mat1
f 55/55/55 56/56/56 57/57/57
f 55/55/55 58/58/58 56/56/56
f 59/59/59 58/58/58 55/55/55
f 59/59/59 60/60/60 58/58/58
f 61/61/61 58/58/58 60/60/60
f 61/61/61 62/62/62 58/58/58
f 63/63/63 62/62/62 61/61/61
f 62/62/62 56/56/56 58/58/58

v -17385.583984 1064.313843 9791.762695
v -17353.216797 1643.176270 9748.809570
v -17367.669922 1566.473389 9767.989258
v -17370.443359 1062.359375 9771.671875
v -17403.658203 557.634888 9815.749023
v -17384.541016 555.166992 9790.377930
v -17355.304688 1060.405029 9751.581055
v -17333.480469 1640.628540 9722.618164
v -17326.330078 1561.136841 9713.128906

vt 0.158569 0.751129
vt 0.348694 1.000000
vt 0.000000 1.000000
vt 0.500000 0.750000
vt 0.318573 0.500000
vt 0.681427 0.500000
vt 0.841431 0.751129
vt 0.651306 1.000000
vt 1.000000 1.000000

vn 7924809334889683200000000000000000.000000 7840161470883427500000000000000000.000000 -1.#QNAN0
vn 7924809334889683200000000000000000.000000 7840161470883427500000000000000000.000000 -1.#QNAN0
vn 7924809334889683200000000000000000.000000 7840161470883427500000000000000000.000000 -1.#QNAN0
vn 7900660838543343300000000000000000.000000 0.000000 0.000000
vn 7900660838543343300000000000000000.000000 0.000000 0.000000
vn 7900660838543343300000000000000000.000000 0.000000 0.000000
vn 7924809334889683200000000000000000.000000 7840161470883427500000000000000000.000000 -1.#QNAN0
vn 7900660838543343300000000000000000.000000 0.000000 0.000000
vn 7900660838543343300000000000000000.000000 0.000000 0.000000

g polygon7
s 1
usemtl mat1
f 64/64/64 65/65/65 66/66/66
f 64/64/64 67/67/67 65/65/65
f 68/68/68 67/67/67 64/64/64
f 68/68/68 69/69/69 67/67/67
f 70/70/70 67/67/67 69/69/69
f 70/70/70 71/71/71 67/67/67
f 72/72/72 71/71/71 70/70/70
f 71/71/71 65/65/65 67/67/67

v -17991.109375 788.795593 10189.548828
v -17941.583984 1278.583008 10123.826172
v -17958.269531 1215.073975 10145.966797
v -17976.093750 785.055481 10169.620117
v -18024.248047 358.680878 10233.523438
v -18005.283203 353.957916 10208.357422
v -17961.076172 781.315369 10149.691406
v -17922.007813 1273.707275 10097.845703
v -17917.261719 1204.861206 10091.548828

vt 0.158569 0.751129
vt 0.348694 1.000000
vt 0.000000 1.000000
vt 0.500000 0.750000
vt 0.318573 0.500000
vt 0.681427 0.500000
vt 0.841431 0.751129
vt 0.651306 1.000000
vt 1.000000 1.000000

vn 7924809334889683200000000000000000.000000 7840161470883427500000000000000000.000000 -1.#QNAN0
vn 7924809334889683200000000000000000.000000 7840161470883427500000000000000000.000000 -1.#QNAN0
vn 7924809334889683200000000000000000.000000 7840161470883427500000000000000000.000000 -1.#QNAN0
vn 7900660838543343300000000000000000.000000 0.000000 0.000000
vn 7900660838543343300000000000000000.000000 0.000000 0.000000
vn 7900660838543343300000000000000000.000000 0.000000 0.000000
vn 7924809334889683200000000000000000.000000 7840161470883427500000000000000000.000000 -1.#QNAN0
vn 7900660838543343300000000000000000.000000 0.000000 0.000000
vn 7900660838543343300000000000000000.000000 0.000000 0.000000

g polygon8
s 1
usemtl mat1
f 73/73/73 74/74/74 75/75/75
f 73/73/73 76/76/76 74/74/74
f 77/77/77 76/76/76 73/73/73
f 77/77/77 78/78/78 76/76/76
f 79/79/79 76/76/76 78/78/78
f 79/79/79 80/80/80 76/76/76
f 81/81/81 80/80/80 79/79/79
f 80/80/80 74/74/74 76/76/76

v -16680.398438 1172.214844 9707.739258
v -16675.125000 1678.364746 9700.739258
v -16685.957031 1610.157104 9715.115234
v -16665.214844 1172.215942 9687.587891
v -16674.791016 730.331421 9700.296875
v -16655.615234 730.332764 9674.849609
v -16650.029297 1172.216919 9667.436523
v -16655.328125 1678.366211 9674.469727
v -16644.492188 1610.159912 9660.088867

vt 0.158569 0.751129
vt 0.348694 1.000000
vt 0.000000 1.000000
vt 0.500000 0.750000
vt 0.318573 0.500000
vt 0.681427 0.500000
vt 0.841431 0.751129
vt 0.651306 1.000000
vt 1.000000 1.000000

vn 7924809334889683200000000000000000.000000 7840161470883427500000000000000000.000000 -1.#QNAN0
vn 7924809334889683200000000000000000.000000 7840161470883427500000000000000000.000000 -1.#QNAN0
vn 7924809334889683200000000000000000.000000 7840161470883427500000000000000000.000000 -1.#QNAN0
vn 7900660838543343300000000000000000.000000 0.000000 0.000000
vn 7900660838543343300000000000000000.000000 0.000000 0.000000
vn 7900660838543343300000000000000000.000000 0.000000 0.000000
vn 7924809334889683200000000000000000.000000 7840161470883427500000000000000000.000000 -1.#QNAN0
vn 7900660838543343300000000000000000.000000 0.000000 0.000000
vn 7900660838543343300000000000000000.000000 0.000000 0.000000

g polygon9
s 1
usemtl mat1
f 82/82/82 83/83/83 84/84/84
f 82/82/82 85/85/85 83/83/83
f 86/86/86 85/85/85 82/82/82
f 86/86/86 87/87/87 85/85/85
f 88/88/88 85/85/85 87/87/87
f 88/88/88 89/89/89 85/85/85
f 90/90/90 89/89/89 88/88/88
f 89/89/89 83/83/83 85/85/85

