mtllib cmn_obj_pulleystand_SD.mtl

v -12.195313 26.619141 -1.144531
v -11.654297 27.367188 1.156250
v -11.654297 27.367188 -1.144531
v -12.195313 26.619141 1.156250
v -12.445313 25.722656 -1.144531
v -12.445313 25.722656 1.156250
v -12.490234 24.818359 -1.144531
v -12.490234 24.818359 1.156250
v -12.494141 7.316406 -1.144531
v -12.494141 7.316406 1.156250
v -10.369141 26.171875 1.156250
v -10.001953 26.619141 -1.144531
v -10.001953 26.619141 1.156250
v -10.369141 26.171875 -1.144531
v -10.525391 25.722656 1.156250
v -10.525391 25.722656 -1.144531
v -10.603516 24.818359 1.156250
v -10.603516 24.818359 -1.144531
v -10.601563 7.316406 1.156250
v -10.601563 7.316406 -1.144531
v -12.195313 26.619141 1.156250
v -10.369141 26.171875 1.156250
v -10.001953 26.619141 1.156250
v -10.525391 25.722656 1.156250
v -12.445313 25.722656 1.156250
v -10.603516 24.818359 1.156250
v -12.490234 24.818359 1.156250
v -12.494141 7.316406 1.156250
v -10.525391 25.722656 -1.144531
v -12.195313 26.619141 -1.144531
v -10.369141 26.171875 -1.144531
v -12.445313 25.722656 -1.144531
v -10.603516 24.818359 -1.144531
v -12.490234 24.818359 -1.144531
v -10.601563 7.316406 -1.144531
v -12.494141 7.316406 -1.144531
v 2.845703 27.765625 1.361328
v -11.841797 27.361328 1.361328
v 2.845703 27.361328 1.361328
v -11.841797 27.765625 1.361328
v 1.728516 28.568359 0.718750
v -10.566406 28.568359 0.718750
v 2.845703 27.765625 -1.390625
v -10.566406 28.568359 -0.650391
v 1.728516 28.568359 -0.650391
v -11.841797 27.765625 -1.390625
v 2.845703 27.361328 -1.390625
v -11.841797 27.361328 -1.390625
v -10.675781 27.580078 1.156250
v 1.796875 26.619141 1.156250
v 2.021484 27.367188 1.156250
v -11.654297 27.367188 1.156250
v -1.214844 24.365234 -1.029297
v -1.214844 23.757813 0.798828
v -1.214844 23.757813 -0.796875
v -1.214844 24.365234 1.031250
v -1.214844 26.669922 1.031250
v -1.214844 24.365234 1.031250
v -1.730469 24.365234 1.031250
v -1.730469 23.757813 0.798828
v -1.730469 26.669922 1.031250
v -1.214844 26.669922 1.031250
v -1.214844 24.365234 -1.029297
v -1.730469 26.669922 -1.029297
v -1.214844 26.669922 -1.029297
v -1.730469 24.365234 -1.029297
v -1.730469 23.757813 -0.796875
v 1.740234 24.365234 -1.029297
v 1.740234 23.757813 0.798828
v 1.740234 23.757813 -0.796875
v 1.740234 24.365234 1.031250
v 1.740234 26.669922 1.031250
v 1.740234 24.365234 -1.029297
v 1.226563 26.669922 -1.029297
v 1.740234 26.669922 -1.029297
v 1.226563 24.365234 -1.029297
v 1.226563 23.757813 -0.796875
v -10.001953 26.619141 -1.144531
v 2.021484 27.367188 -1.144531
v 1.796875 26.619141 -1.144531
v -10.675781 27.580078 -1.144531
v -11.654297 27.367188 -1.144531
v 1.740234 24.365234 1.031250
v 1.226563 24.365234 1.031250
v 1.226563 23.757813 0.798828
v 1.226563 26.669922 1.031250
v 1.740234 26.669922 1.031250
v -1.730469 26.669922 1.031250
v -1.730469 24.365234 -1.029297
v -1.730469 24.365234 1.031250
v -1.730469 26.669922 -1.029297
v -1.214844 23.757813 -0.796875
v -1.214844 23.757813 0.798828
v -1.429688 25.130859 -0.001953
v 1.429688 24.830078 0.275391
v 1.429688 25.130859 -0.001953
v -1.429688 24.830078 0.275391
v -1.429688 24.529297 -0.001953
v 1.429688 24.830078 -0.279297
v 1.429688 24.529297 -0.001953
v -1.429688 24.830078 -0.279297
v 1.429688 25.130859 -0.001953
v -1.429688 25.130859 -0.001953
v 2.845703 27.361328 1.361328
v -11.841797 27.361328 -1.390625
v 2.845703 27.361328 -1.390625
v -11.841797 27.361328 1.361328
v 2.845703 27.361328 -1.390625
v 2.845703 27.765625 1.361328
v 2.845703 27.361328 1.361328
v 2.845703 27.765625 -1.390625
v -10.566406 28.568359 0.718750
v 1.728516 28.568359 -0.650391
v -10.566406 28.568359 -0.650391
v 1.728516 28.568359 0.718750
v 1.728516 28.568359 0.718750
v 1.728516 28.568359 -0.650391
v -12.796875 7.359375 -1.400391
v -12.796875 0.099609 1.400391
v -12.796875 7.359375 1.400391
v -12.796875 0.099609 -1.400391
v -11.841797 27.361328 1.361328
v -11.841797 27.765625 1.361328
v -10.566406 28.568359 -0.650391
v -10.566406 28.568359 0.718750
v -10.275391 0.099609 -1.400391
v -12.796875 -44.000000 -1.400391
v -12.796875 0.099609 -1.400391
v -10.275391 -44.000000 -1.400391
v 1.226563 23.757813 0.798828
v 1.226563 24.365234 -1.029297
v 1.226563 23.757813 -0.796875
v 1.226563 24.365234 1.031250
v -10.275391 7.359375 -1.400391
v -12.796875 0.099609 -1.400391
v -12.796875 7.359375 -1.400391
v -10.275391 0.099609 -1.400391
v 1.226563 26.669922 1.031250
v 1.226563 26.669922 -1.029297
v -10.275391 0.099609 1.400391
v -10.275391 -44.000000 -1.400391
v -10.275391 0.099609 -1.400391
v -10.275391 -44.000000 1.400391
v 1.740234 23.757813 -0.796875
v 1.740234 23.757813 0.798828
v -12.796875 0.099609 -1.400391
v -12.796875 -44.000000 1.400391
v -12.796875 0.099609 1.400391
v -12.796875 -44.000000 -1.400391
v -12.796875 0.099609 1.400391
v -10.275391 -44.000000 1.400391
v -10.275391 0.099609 1.400391
v -12.796875 -44.000000 1.400391
v 1.796875 26.619141 1.156250
v 1.796875 26.619141 -1.144531
v -12.796875 7.359375 1.400391
v -10.275391 0.099609 1.400391
v -10.275391 7.359375 1.400391
v -12.796875 0.099609 1.400391
v 2.021484 27.367188 1.156250
v 1.796875 26.619141 -1.144531
v 2.021484 27.367188 -1.144531
v 1.796875 26.619141 1.156250
v -12.796875 7.359375 1.400391
v -10.275391 7.359375 -1.400391
v -12.796875 7.359375 -1.400391
v -10.275391 7.359375 1.400391
v -1.730469 23.757813 0.798828
v -1.730469 23.757813 -0.796875
v -10.275391 7.359375 1.400391
v -10.275391 0.099609 -1.400391
v -10.275391 7.359375 -1.400391
v -10.275391 0.099609 1.400391
v -1.214844 26.669922 -1.029297
v 1.740234 26.669922 -1.029297
v -10.601563 7.316406 1.156250

vt -0.297363 1.401611
vt -0.005859 1.507446
vt -0.297363 1.507446
vt -0.005859 1.401611
vt -0.297363 1.281250
vt -0.005859 1.281250
vt -0.297363 1.168457
vt -0.005859 1.168457
vt -0.297363 -0.986694
vt -0.005737 -0.986694
vt -0.295044 0.188110
vt -0.004761 0.126587
vt -0.295044 0.126587
vt -0.004761 0.188110
vt -0.295044 0.249634
vt -0.004761 0.249634
vt -0.295044 0.301514
vt -0.004761 0.301514
vt -0.295044 1.500854
vt -0.004761 1.500854
vt -1.292480 0.159668
vt -1.011719 0.159668
vt -1.011719 0.314575
vt -1.011719 0.091309
vt -1.292480 0.091309
vt -1.011719 0.022339
vt -1.292480 0.022339
vt -1.292480 -1.311279
vt -1.011719 0.090698
vt -1.292480 0.159668
vt -1.011719 0.159668
vt -1.292480 0.089478
vt -1.011719 0.021851
vt -1.292480 0.021851
vt -1.011719 -1.313477
vt -1.292480 -1.313477
vt 0.202271 -1.002563
vt 0.254639 0.534058
vt 0.254639 -1.002563
vt 0.202271 0.534058
vt 0.003174 -0.944458
vt 0.003174 0.546997
vt 0.202271 -1.000488
vt 0.050293 0.462158
vt 0.050293 -0.933228
vt 0.202271 0.534058
vt 0.254639 -1.000488
vt 0.254639 0.534058
vt -1.218750 0.314575
vt -1.011719 1.797852
vt -1.183350 1.797852
vt -1.292480 0.216064
vt 0.258301 0.094116
vt 0.498047 0.011963
vt 0.288818 0.011963
vt 0.528564 0.094116
vt 0.528564 0.406738
vt 0.886475 -0.659180
vt 0.812622 -0.659180
vt 0.812622 -0.488281
vt 0.812622 -0.989990
vt 0.886475 -0.989990
vt 0.886475 0.229004
vt 0.812622 0.513550
vt 0.886475 0.513550
vt 0.812622 0.229004
vt 0.812622 0.028687
vt 0.258301 0.094116
vt 0.498047 0.011963
vt 0.288818 0.011963
vt 0.528564 0.094116
vt 0.528564 0.406738
vt 0.886475 0.229004
vt 0.812622 0.513550
vt 0.886475 0.513550
vt 0.812622 0.229004
vt 0.812622 0.028687
vt -1.011719 0.314575
vt -1.182373 1.797852
vt -1.011230 1.797852
vt -1.218750 0.314575
vt -1.292480 0.216064
vt 0.886475 -0.659180
vt 0.812622 -0.659180
vt 0.812622 -0.488281
vt 0.812622 -0.989990
vt 0.886475 -0.989990
vt 0.528564 0.406738
vt 0.258301 0.094116
vt 0.528564 0.094116
vt 0.258301 0.406738
vt 0.886475 0.028687
vt 0.886475 -0.488281
vt 0.614746 0.111206
vt 0.619507 0.608765
vt 0.614746 0.608765
vt 0.619507 0.111206
vt 0.624268 0.111206
vt 0.628906 0.608765
vt 0.624268 0.608765
vt 0.628906 0.111206
vt 0.633667 0.608765
vt 0.633667 0.111206
vt 0.207886 0.988403
vt 0.248535 1.913574
vt 0.248901 0.988403
vt 0.207275 1.913574
vt 0.254639 0.923828
vt 0.202271 0.534058
vt 0.254639 0.534058
vt 0.202271 0.923828
vt 0.004761 0.862793
vt 0.059082 -0.361816
vt 0.059082 0.862793
vt 0.004761 -0.361816
vt 0.032227 0.628784
vt 0.032227 0.866699
vt 0.263062 0.988647
vt 0.523438 0.410156
vt 0.523438 0.988647
vt 0.263062 0.410156
vt 0.254639 0.923828
vt 0.202271 0.923828
vt 0.003174 0.546997
vt 0.003174 0.871704
vt 1.541748 2.752197
vt 1.689453 -0.001343
vt 1.689453 2.752197
vt 1.541748 -0.001343
vt 0.498047 0.011963
vt 0.258301 0.094116
vt 0.288818 0.011963
vt 0.528564 0.094116
vt 0.263062 0.988647
vt 0.523438 0.410156
vt 0.523438 0.988647
vt 0.263062 0.410156
vt 0.528564 0.406738
vt 0.258301 0.406738
vt 1.690186 2.752197
vt 1.541748 -0.001343
vt 1.541748 2.752197
vt 1.690186 -0.001343
vt 0.886475 0.028687
vt 0.886475 -0.488281
vt 1.689453 2.752197
vt 1.541138 -0.001343
vt 1.541138 2.752197
vt 1.689453 -0.001343
vt 1.541138 2.752197
vt 1.690186 -0.001343
vt 1.690186 2.752197
vt 1.541138 -0.001343
vt -0.295044 -0.987671
vt -0.004761 -0.987671
vt 0.263062 0.988647
vt 0.523438 0.410156
vt 0.523438 0.988647
vt 0.263062 0.410156
vt -1.182983 1.931152
vt -1.011230 1.797852
vt -1.182373 1.797852
vt -1.010620 1.931152
vt 0.520508 0.901001
vt 0.265747 0.664185
vt 0.520508 0.664185
vt 0.265747 0.901001
vt 0.498047 0.011963
vt 0.288818 0.011963
vt 0.263062 0.988647
vt 0.523438 0.410156
vt 0.523438 0.988647
vt 0.263062 0.410156
vt 0.258301 0.406738
vt 0.258301 0.406738
vt -1.011719 -1.311279

vn -0.900756 0.434326 0.000000
vn -0.810438 0.585825 0.000000
vn -0.810438 0.585825 0.000000
vn -0.900756 0.434326 0.000000
vn -0.987033 0.160518 0.000000
vn -0.987033 0.160518 0.000000
vn -0.999690 0.024902 0.000000
vn -0.999690 0.024902 0.000000
vn -1.000000 0.000183 0.000000
vn -1.000000 0.000183 0.000000
vn 0.872271 -0.489023 0.000000
vn 0.427971 -0.903793 0.000000
vn 0.427971 -0.903793 0.000000
vn 0.872271 -0.489023 0.000000
vn 0.977828 -0.209408 0.000000
vn 0.977828 -0.209408 0.000000
vn 0.999071 -0.043090 0.000000
vn 0.999071 -0.043090 0.000000
vn 1.000000 0.000183 0.000000
vn 1.000000 0.000183 0.000000
vn 0.000000 0.000000 1.000000
vn 0.000000 0.000000 1.000000
vn 0.000000 0.000000 1.000000
vn 0.000000 0.000000 1.000000
vn 0.000000 0.000000 1.000000
vn 0.000000 0.000000 1.000000
vn 0.000000 0.000000 1.000000
vn 0.000000 0.000000 1.000000
vn 0.000000 0.000000 -1.000000
vn 0.000000 0.000000 -1.000000
vn 0.000000 0.000000 -1.000000
vn 0.000000 0.000000 -1.000000
vn 0.000000 0.000000 -1.000000
vn 0.000000 0.000000 -1.000000
vn 0.000000 0.000000 -1.000000
vn 0.000000 0.000000 -1.000000
vn 0.657292 0.408145 0.633549
vn -0.707107 0.000000 0.707107
vn 0.707107 0.000000 0.707107
vn -0.654743 0.421704 0.627277
vn 0.225523 0.905267 0.360044
vn -0.200074 0.909185 0.365175
vn 0.652038 0.415100 -0.634460
vn -0.201593 0.920993 -0.333364
vn 0.227474 0.916730 -0.328424
vn -0.650090 0.427432 -0.628239
vn 0.707107 0.000000 -0.707107
vn -0.707107 0.000000 -0.707107
vn 0.000000 0.000000 1.000000
vn 0.000000 0.000000 1.000000
vn 0.000000 0.000000 1.000000
vn 0.000000 0.000000 1.000000
vn 1.000000 0.000000 0.000000
vn 1.000000 0.000000 0.000000
vn 1.000000 0.000000 0.000000
vn 1.000000 0.000000 0.000000
vn 1.000000 0.000000 0.000000
vn 0.000000 -0.182623 0.983183
vn 0.000000 -0.182623 0.983183
vn 0.000000 -0.824366 0.566057
vn 0.000000 0.000000 1.000000
vn 0.000000 0.000000 1.000000
vn 0.000000 -0.182623 -0.983183
vn 0.000000 0.000000 -1.000000
vn 0.000000 0.000000 -1.000000
vn 0.000000 -0.182623 -0.983183
vn 0.000000 -0.824366 -0.566057
vn 1.000000 0.000000 0.000000
vn 1.000000 0.000000 0.000000
vn 1.000000 0.000000 0.000000
vn 1.000000 0.000000 0.000000
vn 1.000000 0.000000 0.000000
vn 0.000000 -0.182623 -0.983183
vn 0.000000 0.000000 -1.000000
vn 0.000000 0.000000 -1.000000
vn 0.000000 -0.182623 -0.983183
vn 0.000000 -0.824366 -0.566057
vn 0.000000 0.000000 -1.000000
vn 0.000000 0.000000 -1.000000
vn 0.000000 0.000000 -1.000000
vn 0.000000 0.000000 -1.000000
vn 0.000000 0.000000 -1.000000
vn 0.000000 -0.182623 0.983183
vn 0.000000 -0.182623 0.983183
vn 0.000000 -0.824366 0.566057
vn 0.000000 0.000000 1.000000
vn 0.000000 0.000000 1.000000
vn -1.000000 0.000000 0.000000
vn -1.000000 0.000000 0.000000
vn -1.000000 0.000000 0.000000
vn -1.000000 0.000000 0.000000
vn 0.000000 -0.824366 -0.566057
vn 0.000000 -0.824366 0.566057
vn 0.000000 1.000000 0.000000
vn 0.000000 0.000000 1.000000
vn 0.000000 1.000000 0.000000
vn 0.000000 0.000000 1.000000
vn 0.000000 -1.000000 0.000000
vn 0.000000 0.000000 -1.000000
vn 0.000000 -1.000000 0.000000
vn 0.000000 0.000000 -1.000000
vn 0.000000 1.000000 0.000000
vn 0.000000 1.000000 0.000000
vn 0.000000 -1.000000 0.000000
vn 0.000000 -1.000000 0.000000
vn 0.000000 -1.000000 0.000000
vn 0.000000 -1.000000 0.000000
vn 0.707107 0.000000 -0.707107
vn 0.657292 0.408145 0.633549
vn 0.707107 0.000000 0.707107
vn 0.652038 0.415100 -0.634460
vn -0.200074 0.909185 0.365175
vn 0.227474 0.916730 -0.328424
vn -0.201593 0.920993 -0.333364
vn 0.225523 0.905267 0.360044
vn 0.225523 0.905267 0.360044
vn 0.227474 0.916730 -0.328424
vn -1.000000 0.000000 0.000000
vn -1.000000 0.000000 0.000000
vn -1.000000 0.000000 0.000000
vn -1.000000 0.000000 0.000000
vn -0.707107 0.000000 0.707107
vn -0.654743 0.421704 0.627277
vn -0.201593 0.920993 -0.333364
vn -0.200074 0.909185 0.365175
vn 0.000000 0.000000 -1.000000
vn 0.000000 0.000000 -1.000000
vn 0.000000 0.000000 -1.000000
vn 0.000000 0.000000 -1.000000
vn -1.000000 0.000000 0.000000
vn -1.000000 0.000000 0.000000
vn -1.000000 0.000000 0.000000
vn -1.000000 0.000000 0.000000
vn 0.000000 0.000000 -1.000000
vn 0.000000 0.000000 -1.000000
vn 0.000000 0.000000 -1.000000
vn 0.000000 0.000000 -1.000000
vn -1.000000 0.000000 0.000000
vn -1.000000 0.000000 0.000000
vn 1.000000 0.000000 0.000000
vn 1.000000 0.000000 0.000000
vn 1.000000 0.000000 0.000000
vn 1.000000 0.000000 0.000000
vn 0.000000 -0.824366 -0.566057
vn 0.000000 -0.824366 0.566057
vn -1.000000 0.000000 0.000000
vn -1.000000 0.000000 0.000000
vn -1.000000 0.000000 0.000000
vn -1.000000 0.000000 0.000000
vn 0.000000 0.000000 1.000000
vn 0.000000 0.000000 1.000000
vn 0.000000 0.000000 1.000000
vn 0.000000 0.000000 1.000000
vn 0.000000 -1.000000 0.000000
vn 0.000000 -1.000000 0.000000
vn 0.000000 0.000000 1.000000
vn 0.000000 0.000000 1.000000
vn 0.000000 0.000000 1.000000
vn 0.000000 0.000000 1.000000
vn 0.957530 -0.288333 0.000000
vn 0.957530 -0.288333 0.000000
vn 0.957530 -0.288333 0.000000
vn 0.957530 -0.288333 0.000000
vn 0.000000 1.000000 0.000000
vn 0.000000 1.000000 0.000000
vn 0.000000 1.000000 0.000000
vn 0.000000 1.000000 0.000000
vn -1.000000 0.000000 0.000000
vn -1.000000 0.000000 0.000000
vn 1.000000 0.000000 0.000000
vn 1.000000 0.000000 0.000000
vn 1.000000 0.000000 0.000000
vn 1.000000 0.000000 0.000000
vn 1.000000 0.000000 0.000000
vn 1.000000 0.000000 0.000000
vn 0.000000 0.000000 1.000000

g polygon0
s 1
usemtl mat1
f 1/1/1 2/2/2 3/3/3
f 1/1/1 4/4/4 2/2/2
f 5/5/5 4/4/4 1/1/1
f 5/5/5 6/6/6 4/4/4
f 7/7/7 6/6/6 5/5/5
f 7/7/7 8/8/8 6/6/6
f 9/9/9 8/8/8 7/7/7
f 9/9/9 10/10/10 8/8/8
f 11/11/11 12/12/12 13/13/13
f 11/11/11 14/14/14 12/12/12
f 15/15/15 14/14/14 11/11/11
f 15/15/15 16/16/16 14/14/14
f 17/17/17 16/16/16 15/15/15
f 17/17/17 18/18/18 16/16/16
f 19/19/19 18/18/18 17/17/17
f 19/19/19 20/20/20 18/18/18
f 21/21/21 22/22/22 23/23/23
f 21/21/21 24/24/24 22/22/22
f 25/25/25 24/24/24 21/21/21
f 25/25/25 26/26/26 24/24/24
f 27/27/27 26/26/26 25/25/25
f 27/27/27 28/28/28 26/26/26
f 29/29/29 30/30/30 31/31/31
f 29/29/29 32/32/32 30/30/30
f 33/33/33 32/32/32 29/29/29
f 33/33/33 34/34/34 32/32/32
f 35/35/35 34/34/34 33/33/33
f 35/35/35 36/36/36 34/34/34
f 37/37/37 38/38/38 39/39/39
f 37/37/37 40/40/40 38/38/38
f 41/41/41 40/40/40 37/37/37
f 41/41/41 42/42/42 40/40/40
f 43/43/43 44/44/44 45/45/45
f 43/43/43 46/46/46 44/44/44
f 47/47/47 46/46/46 43/43/43
f 47/47/47 48/48/48 46/46/46
f 49/49/49 50/50/50 51/51/51
f 49/49/49 23/23/23 50/50/50
f 52/52/52 23/23/23 49/49/49
f 52/52/52 21/21/21 23/23/23
f 53/53/53 54/54/54 55/55/55
f 53/53/53 56/56/56 54/54/54
f 57/57/57 56/56/56 53/53/53
f 58/58/58 59/59/59 60/60/60
f 58/58/58 61/61/61 59/59/59
f 62/62/62 61/61/61 58/58/58
f 63/63/63 64/64/64 65/65/65
f 63/63/63 66/66/66 64/64/64
f 67/67/67 66/66/66 63/63/63
f 68/68/68 69/69/69 70/70/70
f 68/68/68 71/71/71 69/69/69
f 72/72/72 71/71/71 68/68/68
f 73/73/73 74/74/74 75/75/75
f 73/73/73 76/76/76 74/74/74
f 77/77/77 76/76/76 73/73/73
f 78/78/78 79/79/79 80/80/80
f 78/78/78 81/81/81 79/79/79
f 82/82/82 81/81/81 78/78/78
f 83/83/83 84/84/84 85/85/85
f 83/83/83 86/86/86 84/84/84
f 87/87/87 86/86/86 83/83/83
f 88/88/88 89/89/89 90/90/90
f 88/88/88 91/91/91 89/89/89
f 92/92/92 67/67/67 63/63/63
f 92/92/92 93/93/93 67/67/67
f 93/93/93 60/60/60 67/67/67
f 93/93/93 58/58/58 60/60/60
f 94/94/94 95/95/95 96/96/96
f 94/94/94 97/97/97 95/95/95
f 98/98/98 99/99/99 100/100/100
f 98/98/98 101/101/101 99/99/99
f 102/102/102 101/101/101 103/103/103
f 102/102/102 99/99/99 101/101/101
f 104/104/104 105/105/105 106/106/106
f 104/104/104 107/107/107 105/105/105
f 108/108/108 109/109/109 110/110/110
f 108/108/108 111/111/111 109/109/109
f 97/97/97 100/100/100 95/95/95
f 97/97/97 98/98/98 100/100/100
f 112/112/112 113/113/113 114/114/114
f 112/112/112 115/115/115 113/113/113
f 116/116/116 111/111/111 117/117/117
f 116/116/116 109/109/109 111/111/111
f 118/118/118 119/119/119 120/120/120
f 118/118/118 121/121/121 119/119/119
f 122/122/122 46/46/46 48/48/48
f 122/122/122 123/123/123 46/46/46
f 124/124/124 123/123/123 125/125/125
f 124/124/124 46/46/46 123/123/123
f 126/126/126 127/127/127 128/128/128
f 126/126/126 129/129/129 127/127/127
f 130/130/130 131/131/131 132/132/132
f 130/130/130 133/133/133 131/131/131
f 134/134/134 135/135/135 136/136/136
f 134/134/134 137/137/137 135/135/135
f 138/138/138 131/131/131 133/133/133
f 138/138/138 139/139/139 131/131/131
f 140/140/140 141/141/141 142/142/142
f 140/140/140 143/143/143 141/141/141
f 144/144/144 77/77/77 73/73/73
f 144/144/144 145/145/145 77/77/77
f 146/146/146 147/147/147 148/148/148
f 146/146/146 149/149/149 147/147/147
f 150/150/150 151/151/151 152/152/152
f 150/150/150 153/153/153 151/151/151
f 154/154/154 12/12/12 155/155/155
f 154/154/154 13/13/13 12/12/12
f 156/156/156 157/157/157 158/158/158
f 156/156/156 159/159/159 157/157/157
f 160/160/160 161/161/161 162/162/162
f 160/160/160 163/163/163 161/161/161
f 145/145/145 85/85/85 77/77/77
f 145/145/145 83/83/83 85/85/85
f 78/78/78 30/30/30 82/82/82
f 78/78/78 31/31/31 30/30/30
f 164/164/164 165/165/165 166/166/166
f 164/164/164 167/167/167 165/165/165
f 168/168/168 89/89/89 169/169/169
f 168/168/168 90/90/90 89/89/89
f 170/170/170 171/171/171 172/172/172
f 170/170/170 173/173/173 171/171/171
f 174/174/174 57/57/57 53/53/53
f 175/175/175 72/72/72 68/68/68
f 176/176/176 26/26/26 28/28/28

