mtllib cmn_obj_pulleystand_add_SD.mtl

v -12.796875 -43.996094 -1.398438
v -12.796875 -112.972656 1.398438
v -12.796875 -43.996094 1.398438
v -12.796875 -112.972656 -1.398438
v -10.277344 -43.996094 -1.398438
v -12.796875 -112.972656 -1.398438
v -12.796875 -43.996094 -1.398438
v -10.277344 -112.972656 -1.398438
v -10.277344 -43.996094 1.398438
v -10.277344 -112.972656 -1.398438
v -10.277344 -43.996094 -1.398438
v -10.277344 -112.972656 1.398438
v -12.796875 -43.996094 1.398438
v -10.277344 -112.972656 1.398438
v -10.277344 -43.996094 1.398438
v -12.796875 -112.972656 1.398438

vt 1.689453 2.752197
vt 1.541138 -0.001343
vt 1.541138 2.752197
vt 1.689453 -0.001343
vt 1.541748 2.752197
vt 1.689453 -0.001343
vt 1.689453 2.752197
vt 1.541748 -0.001343
vt 1.690186 2.752197
vt 1.541748 -0.001343
vt 1.541748 2.752197
vt 1.690186 -0.001343
vt 1.541138 2.752197
vt 1.690186 -0.001343
vt 1.690186 2.752197
vt 1.541138 -0.001343

vn -1.000000 0.000000 0.000000
vn -1.000000 0.000000 0.000000
vn -1.000000 0.000000 0.000000
vn -1.000000 0.000000 0.000000
vn 0.000000 0.000000 -1.000000
vn 0.000000 0.000000 -1.000000
vn 0.000000 0.000000 -1.000000
vn 0.000000 0.000000 -1.000000
vn 1.000000 0.000000 0.000000
vn 1.000000 0.000000 0.000000
vn 1.000000 0.000000 0.000000
vn 1.000000 0.000000 0.000000
vn 0.000000 0.000000 1.000000
vn 0.000000 0.000000 1.000000
vn 0.000000 0.000000 1.000000
vn 0.000000 0.000000 1.000000

g polygon0
s 1
usemtl mat1
f 1/1/1 2/2/2 3/3/3
f 1/1/1 4/4/4 2/2/2
f 5/5/5 6/6/6 7/7/7
f 5/5/5 8/8/8 6/6/6
f 9/9/9 10/10/10 11/11/11
f 9/9/9 12/12/12 10/10/10
f 13/13/13 14/14/14 15/15/15
f 13/13/13 16/16/16 14/14/14

